<svg width="191" height="191" viewBox="0 0 191 191" fill="none" xmlns="http://www.w3.org/2000/svg">
<path d="M95.5 38.4899C105.254 38.4899 114.846 40.9927 123.356 45.7589C131.867 50.5251 139.012 57.3953 144.109 65.7123C149.206 74.0293 152.083 83.5149 152.466 93.2618C152.849 103.009 150.725 112.691 146.296 121.382C141.868 130.073 135.284 137.483 127.173 142.902C119.063 148.321 109.697 151.569 99.973 152.334C90.2486 153.1 80.4906 151.357 71.6322 147.273C62.7738 143.19 55.1114 136.901 49.3779 129.01" stroke="#E1E8F2" stroke-width="5.2875" stroke-dasharray="1.76 1.76"/>
<circle cx="95.5" cy="95.5" r="82.8375" stroke="#A1A5B5" stroke-width="24.675" stroke-dasharray="0.88 0.88"/>
<path d="M71.4094 76.3461L87.0393 92.0182V76.3461H91.4385V96.9039H85.4107L64.8318 76.3461H71.4094ZM63.1186 87.1326L79.108 92.9277L77.691 96.9039L61.6381 91.2145L63.1186 87.1326ZM127.546 76.3672C127.814 76.48 128.004 76.6774 128.117 76.9594V96.2059C128.018 96.5443 127.793 96.777 127.44 96.9039H98.486V92.1663H123.443V81.0837H98.486V76.3672H127.546Z" fill="white"/>
<path d="M94.2112 101.876L87.6406 115.567H74.8378V112.479H85.723L87.6406 108.193C86.663 108.766 85.7606 109.157 84.9334 109.363C84.1062 109.57 83.1568 109.753 82.0852 109.913C81.0136 110.064 79.2746 110.158 76.8682 110.195H74.8942V107.107H76.9246C79.2934 106.957 80.8162 106.835 81.493 106.741C82.1698 106.647 83.091 106.426 84.2566 106.078C85.6854 105.552 86.851 105.049 87.7534 104.569C88.6558 104.09 89.671 103.188 90.799 101.862L94.2112 101.876ZM115.572 101.848V105.006H113.471V115.567H110.623V105.006H110.228L105.208 115.567H101.556L94.9717 101.848H98.5108L103.418 111.662L108.169 101.848H115.572Z" fill="#747A8A"/>
</svg>
