<svg width="279" height="311" viewBox="0 0 279 311" fill="none" xmlns="http://www.w3.org/2000/svg">
<path d="M192.851 63.1299C203.946 63.1299 212.941 72.1248 212.941 83.2207V212.377C212.941 223.473 203.946 232.468 192.851 232.468H85.2207C74.125 232.468 65.1301 223.473 65.1299 212.377V83.2207C65.1299 72.1249 74.1249 63.1299 85.2207 63.1299H192.851Z" fill="#021414" stroke="black" stroke-width="5.74026"/>
<path d="M190.698 245.383C202.983 245.383 212.941 255.342 212.941 267.626C212.941 279.911 202.983 289.87 190.698 289.87H87.373C75.0885 289.87 65.1299 279.911 65.1299 267.626C65.1301 255.342 75.0886 245.383 87.373 245.383H190.698Z" fill="#021414" stroke="black" stroke-width="5.74026"/>
<path d="M87.373 248.971H190.698C201.001 248.971 209.353 257.323 209.354 267.626C209.354 277.93 201.001 286.282 190.698 286.283H87.373C77.0699 286.282 68.7178 277.93 68.7178 267.626C68.718 257.323 77.07 248.971 87.373 248.971Z" stroke="#00A0F2" stroke-width="1.43506"/>
<path d="M87.3733 251.124H98.8538C107.968 251.124 115.357 258.512 115.357 267.627C115.357 276.741 107.968 284.129 98.8538 284.129H87.3733C78.2588 284.129 70.8704 276.741 70.8704 267.627C70.8704 258.654 78.0299 251.354 86.9475 251.128L87.3733 251.124Z" stroke="#00A0F2" stroke-width="1.43506"/>
<path d="M153.761 177.168C151.297 179.741 149.917 183.17 149.917 186.74V224.069C149.917 224.466 149.596 224.787 149.2 224.787H146.305C145.909 224.787 145.587 224.466 145.587 224.069V143.652C145.587 137.311 147.741 131.163 151.686 126.213L152.073 125.737L153.761 123.711V177.168Z" fill="#0076CA" stroke="#00A1F3" stroke-width="1.43506"/>
<path d="M158.301 118.922C158.753 118.471 159.526 118.791 159.526 119.43V171.101C159.526 171.244 159.484 171.382 159.406 171.499L159.316 171.609L158.342 172.582C157.89 173.034 157.118 172.714 157.118 172.075V120.403C157.118 120.26 157.16 120.122 157.238 120.005L157.328 119.896L158.301 118.922Z" stroke="#00A1F3" stroke-width="1.43506"/>
<path d="M167.909 109.314C168.361 108.862 169.135 109.182 169.135 109.821V161.492C169.135 161.635 169.092 161.774 169.014 161.891L168.924 162L164.108 166.817C163.656 167.268 162.883 166.949 162.883 166.31V114.638C162.883 114.495 162.925 114.356 163.003 114.239L163.093 114.131L167.909 109.314Z" stroke="#00A1F3" stroke-width="1.43506"/>
<path d="M181.362 95.8614C181.814 95.4094 182.586 95.73 182.586 96.3692V148.04C182.586 148.183 182.544 148.322 182.466 148.439L182.376 148.548L173.716 157.208C173.264 157.66 172.492 157.34 172.492 156.7V105.029C172.492 104.887 172.534 104.748 172.612 104.631L172.702 104.522L181.362 95.8614Z" stroke="#00A1F3" stroke-width="1.43506"/>
<path d="M198.658 78.5658C199.11 78.114 199.882 78.4344 199.882 79.0736V130.744C199.882 130.887 199.84 131.026 199.762 131.143L199.672 131.252L187.168 143.756C186.716 144.208 185.944 143.888 185.944 143.248V91.5775C185.944 91.4348 185.986 91.296 186.064 91.1791L186.154 91.0697L198.658 78.5658Z" stroke="#00A1F3" stroke-width="1.43506"/>
<path d="M204.423 72.8005C204.875 72.3489 205.648 72.6692 205.648 73.3084V124.979C205.648 125.122 205.605 125.261 205.528 125.378L205.438 125.487L204.464 126.461C204.012 126.912 203.239 126.592 203.239 125.953V74.281C203.24 74.1385 203.282 74.0004 203.36 73.8836L203.449 73.7742L204.423 72.8005Z" stroke="#00A1F3" stroke-width="1.43506"/>
<path d="M124.447 177.168C126.912 179.741 128.291 183.17 128.291 186.74V224.069C128.291 224.466 128.613 224.787 129.009 224.787H131.904C132.3 224.787 132.621 224.466 132.621 224.069V143.652C132.621 137.311 130.467 131.163 126.523 126.213L126.136 125.737L124.447 123.711V177.168Z" fill="#0076CA" stroke="#00A1F3" stroke-width="1.43506"/>
<path d="M119.907 118.922C119.455 118.471 118.683 118.791 118.683 119.43V171.101C118.683 171.244 118.725 171.382 118.803 171.499L118.893 171.609L119.866 172.582C120.318 173.034 121.091 172.714 121.091 172.075V120.403C121.091 120.26 121.049 120.122 120.971 120.005L120.881 119.896L119.907 118.922Z" stroke="#00A1F3" stroke-width="1.43506"/>
<path d="M110.299 109.314C109.847 108.862 109.074 109.182 109.074 109.821V161.492C109.074 161.635 109.117 161.774 109.195 161.891L109.285 162L114.101 166.817C114.553 167.268 115.325 166.949 115.326 166.31V114.638C115.326 114.495 115.284 114.356 115.205 114.239L115.116 114.131L110.299 109.314Z" stroke="#00A1F3" stroke-width="1.43506"/>
<path d="M96.8468 95.8614C96.3948 95.4094 95.6222 95.73 95.6222 96.3692V148.04C95.6222 148.183 95.6643 148.322 95.7423 148.439L95.8322 148.548L104.492 157.208C104.944 157.66 105.717 157.34 105.717 156.7V105.029C105.717 104.887 105.675 104.748 105.597 104.631L105.507 104.522L96.8468 95.8614Z" stroke="#00A1F3" stroke-width="1.43506"/>
<path d="M79.5508 78.5658C79.0988 78.114 78.3262 78.4344 78.3262 79.0736V130.744C78.3262 130.887 78.3684 131.026 78.4464 131.143L78.5362 131.252L91.0401 143.756C91.4921 144.208 92.2647 143.888 92.2647 143.248V91.5775C92.2647 91.4348 92.2226 91.296 92.1446 91.1791L92.0547 91.0697L79.5508 78.5658Z" stroke="#00A1F3" stroke-width="1.43506"/>
<path d="M73.7855 72.8005C73.3335 72.3489 72.5609 72.6692 72.5609 73.3084V124.979C72.5609 125.122 72.6031 125.261 72.681 125.378L72.7709 125.487L73.7445 126.461C74.1966 126.912 74.9691 126.592 74.9691 125.953V74.281C74.969 74.1385 74.9269 74.0004 74.849 73.8836L74.7592 73.7742L73.7855 72.8005Z" stroke="#00A1F3" stroke-width="1.43506"/>
<g opacity="0.4" filter="url(#filter0_f_41_1454)">
<path d="M153.761 177.168C151.297 179.741 149.917 183.17 149.917 186.74V224.069C149.917 224.466 149.596 224.787 149.2 224.787H146.305C145.909 224.787 145.587 224.466 145.587 224.069V143.652C145.587 137.311 147.741 131.163 151.686 126.213L152.073 125.737L153.761 123.711V177.168Z" fill="#0076CA" stroke="#00A1F3" stroke-width="1.43506"/>
<path d="M158.301 118.922C158.753 118.471 159.526 118.791 159.526 119.43V171.101C159.526 171.244 159.484 171.382 159.406 171.499L159.316 171.609L158.342 172.582C157.89 173.034 157.118 172.714 157.118 172.075V120.403C157.118 120.26 157.16 120.122 157.238 120.005L157.328 119.896L158.301 118.922Z" stroke="#00A1F3" stroke-width="1.43506"/>
<path d="M167.909 109.314C168.361 108.862 169.135 109.182 169.135 109.821V161.492C169.135 161.635 169.092 161.774 169.014 161.891L168.924 162L164.108 166.817C163.656 167.268 162.883 166.949 162.883 166.31V114.638C162.883 114.495 162.925 114.356 163.003 114.239L163.093 114.131L167.909 109.314Z" stroke="#00A1F3" stroke-width="1.43506"/>
<path d="M181.362 95.8614C181.814 95.4095 182.586 95.73 182.586 96.3693V148.04C182.586 148.183 182.544 148.322 182.466 148.439L182.376 148.548L173.716 157.208C173.264 157.66 172.492 157.34 172.492 156.7V105.029C172.492 104.887 172.534 104.748 172.612 104.631L172.702 104.522L181.362 95.8614Z" stroke="#00A1F3" stroke-width="1.43506"/>
<path d="M198.658 78.5658C199.11 78.114 199.882 78.4344 199.882 79.0736V130.744C199.882 130.887 199.84 131.026 199.762 131.143L199.672 131.252L187.169 143.756C186.716 144.208 185.944 143.888 185.944 143.248V91.5775C185.944 91.4348 185.986 91.296 186.064 91.1791L186.154 91.0697L198.658 78.5658Z" stroke="#00A1F3" stroke-width="1.43506"/>
<path d="M204.423 72.8005C204.875 72.3489 205.648 72.6692 205.648 73.3084V124.979C205.648 125.122 205.606 125.261 205.528 125.378L205.438 125.487L204.464 126.461C204.012 126.912 203.24 126.592 203.24 125.953V74.281C203.24 74.1385 203.282 74.0004 203.36 73.8836L203.449 73.7742L204.423 72.8005Z" stroke="#00A1F3" stroke-width="1.43506"/>
<path d="M124.447 177.168C126.912 179.741 128.291 183.17 128.291 186.74V224.069C128.291 224.466 128.613 224.787 129.009 224.787H131.904C132.3 224.787 132.621 224.466 132.621 224.069V143.652C132.621 137.311 130.467 131.163 126.523 126.213L126.136 125.737L124.447 123.711V177.168Z" fill="#0076CA" stroke="#00A1F3" stroke-width="1.43506"/>
<path d="M119.907 118.922C119.455 118.471 118.683 118.791 118.683 119.43V171.101C118.683 171.244 118.725 171.382 118.803 171.499L118.893 171.609L119.866 172.582C120.318 173.034 121.091 172.714 121.091 172.075V120.403C121.091 120.26 121.049 120.122 120.971 120.005L120.881 119.896L119.907 118.922Z" stroke="#00A1F3" stroke-width="1.43506"/>
<path d="M110.299 109.314C109.847 108.862 109.074 109.182 109.074 109.821V161.492C109.074 161.635 109.117 161.774 109.195 161.891L109.285 162L114.101 166.817C114.553 167.268 115.325 166.949 115.326 166.31V114.638C115.326 114.495 115.284 114.356 115.206 114.239L115.116 114.131L110.299 109.314Z" stroke="#00A1F3" stroke-width="1.43506"/>
<path d="M96.8469 95.8614C96.3948 95.4095 95.6223 95.73 95.6223 96.3693V148.04C95.6223 148.183 95.6643 148.322 95.7424 148.439L95.8322 148.548L104.492 157.208C104.944 157.66 105.717 157.34 105.717 156.7V105.029C105.717 104.887 105.675 104.748 105.597 104.631L105.507 104.522L96.8469 95.8614Z" stroke="#00A1F3" stroke-width="1.43506"/>
<path d="M79.5509 78.5658C79.0988 78.114 78.3263 78.4344 78.3263 79.0736V130.744C78.3263 130.887 78.3684 131.026 78.4464 131.143L78.5362 131.252L91.0401 143.756C91.4922 144.208 92.2647 143.888 92.2647 143.248V91.5775C92.2647 91.4348 92.2226 91.296 92.1446 91.1791L92.0548 91.0697L79.5509 78.5658Z" stroke="#00A1F3" stroke-width="1.43506"/>
<path d="M73.7856 72.8005C73.3335 72.3489 72.561 72.6692 72.561 73.3084V124.979C72.561 125.122 72.6031 125.261 72.6811 125.378L72.7709 125.487L73.7446 126.461C74.1966 126.912 74.9692 126.592 74.9692 125.953V74.281C74.9691 74.1385 74.9269 74.0004 74.8491 73.8836L74.7592 73.7742L73.7856 72.8005Z" stroke="#00A1F3" stroke-width="1.43506"/>
</g>
<g filter="url(#filter1_d_41_1454)">
<path d="M106.748 208.487C106.534 208.487 106.332 208.582 106.195 208.747L99.3934 216.941C99.0053 217.409 99.3379 218.117 99.9456 218.117H111.363C111.664 218.117 111.934 217.929 112.037 217.646L115.028 209.451C115.199 208.983 114.852 208.487 114.354 208.487H106.748ZM88.8856 216.85C88.372 217.28 88.6764 218.117 89.3465 218.117H94.7144C94.9142 218.117 95.105 218.034 95.2408 217.887L102.831 209.692C103.257 209.233 102.931 208.487 102.305 208.487H99.1228C98.9542 208.487 98.791 208.547 98.6618 208.655L88.8856 216.85ZM101.535 206.246C101.021 206.677 101.326 207.514 101.996 207.514H104.537C104.737 207.514 104.927 207.43 105.063 207.284L108.445 203.633C108.87 203.174 108.544 202.428 107.918 202.428H106.351C106.183 202.428 106.02 202.487 105.89 202.595L101.535 206.246ZM111.778 202.428C111.564 202.428 111.362 202.523 111.226 202.687L108.195 206.338C107.807 206.806 108.14 207.514 108.747 207.514H115.232C115.533 207.514 115.803 207.325 115.906 207.042L117.239 203.391C117.409 202.923 117.063 202.428 116.565 202.428H111.778ZM108.764 200.187C108.251 200.617 108.555 201.454 109.225 201.454H110.15C110.35 201.454 110.541 201.371 110.676 201.224L112.88 198.845C113.306 198.386 112.98 197.64 112.354 197.64H112.063C111.895 197.64 111.731 197.699 111.602 197.807L108.764 200.187ZM115.751 197.64C115.538 197.64 115.336 197.735 115.199 197.899L113.224 200.278C112.836 200.746 113.169 201.454 113.777 201.454H117.444C117.745 201.454 118.015 201.266 118.118 200.983L118.986 198.603C119.157 198.135 118.81 197.64 118.312 197.64H115.751ZM113.995 195.802C113.546 196.178 113.812 196.91 114.398 196.91V196.91C114.573 196.91 114.74 196.837 114.859 196.709L116.253 195.204C116.548 194.885 116.322 194.367 115.888 194.367V194.367C115.771 194.367 115.657 194.408 115.568 194.484L113.995 195.802ZM118.468 194.367C118.255 194.367 118.052 194.462 117.916 194.626L116.996 195.734C116.608 196.202 116.941 196.91 117.548 196.91H119.102C119.403 196.91 119.673 196.722 119.776 196.439L120.18 195.331C120.351 194.863 120.004 194.367 119.506 194.367H118.468ZM117.076 193.22C116.808 193.444 116.967 193.88 117.316 193.88V193.88C117.42 193.88 117.519 193.837 117.59 193.76L118.713 192.547C118.873 192.375 118.751 192.095 118.515 192.095V192.095C118.452 192.095 118.391 192.117 118.342 192.158L117.076 193.22ZM120.349 192.095C120.139 192.095 119.939 192.189 119.805 192.351L119.511 192.704C119.123 193.172 119.456 193.88 120.064 193.88H120.207C120.509 193.88 120.778 193.692 120.882 193.408L121.014 193.045C121.183 192.583 120.841 192.095 120.349 192.095V192.095ZM121.228 190.851C121.116 190.851 121.009 190.901 120.937 190.988V190.988C120.732 191.235 120.907 191.608 121.228 191.608H121.273C121.433 191.608 121.575 191.509 121.629 191.359V191.359C121.72 191.112 121.537 190.851 121.273 190.851H121.228ZM119.384 191.284C119.253 191.394 119.331 191.608 119.502 191.608V191.608C119.553 191.608 119.602 191.587 119.637 191.55L120.06 191.093C120.146 191.001 120.08 190.851 119.954 190.851V190.851C119.92 190.851 119.888 190.863 119.862 190.884L119.384 191.284Z" fill="url(#paint0_linear_41_1454)"/>
</g>
<g filter="url(#filter2_d_41_1454)">
<path d="M171.324 208.487C171.537 208.487 171.74 208.582 171.876 208.747L178.678 216.941C179.066 217.409 178.734 218.117 178.126 218.117H166.709C166.407 218.117 166.138 217.929 166.035 217.646L163.044 209.451C162.873 208.983 163.219 208.487 163.718 208.487H171.324ZM189.186 216.85C189.699 217.28 189.395 218.117 188.725 218.117H183.357C183.157 218.117 182.966 218.034 182.831 217.887L175.24 209.692C174.815 209.233 175.14 208.487 175.766 208.487H178.949C179.117 208.487 179.28 208.547 179.41 208.655L189.186 216.85ZM176.537 206.246C177.05 206.677 176.746 207.514 176.076 207.514H173.535C173.335 207.514 173.144 207.43 173.008 207.284L169.627 203.633C169.201 203.174 169.527 202.428 170.153 202.428H171.72C171.889 202.428 172.052 202.487 172.181 202.595L176.537 206.246ZM166.294 202.428C166.507 202.428 166.709 202.523 166.846 202.687L169.876 206.338C170.264 206.806 169.932 207.514 169.324 207.514H162.839C162.538 207.514 162.269 207.325 162.165 207.042L160.833 203.391C160.662 202.923 161.009 202.428 161.507 202.428H166.294ZM169.307 200.187C169.821 200.617 169.516 201.454 168.846 201.454H167.921C167.722 201.454 167.531 201.371 167.395 201.224L165.191 198.845C164.766 198.386 165.091 197.64 165.718 197.64H166.008C166.177 197.64 166.34 197.699 166.469 197.807L169.307 200.187ZM162.32 197.64C162.533 197.64 162.736 197.735 162.872 197.899L164.847 200.278C165.235 200.746 164.903 201.454 164.295 201.454H160.628C160.326 201.454 160.057 201.266 159.954 200.983L159.086 198.603C158.915 198.135 159.261 197.64 159.76 197.64H162.32ZM164.076 195.802C164.525 196.178 164.259 196.91 163.673 196.91V196.91C163.498 196.91 163.332 196.837 163.213 196.709L161.818 195.204C161.523 194.885 161.749 194.367 162.184 194.367V194.367C162.301 194.367 162.414 194.408 162.504 194.484L164.076 195.802ZM159.603 194.367C159.817 194.367 160.019 194.462 160.155 194.626L161.075 195.734C161.463 196.202 161.131 196.91 160.523 196.91H158.969C158.668 196.91 158.399 196.722 158.295 196.439L157.891 195.331C157.72 194.863 158.067 194.367 158.565 194.367H159.603ZM160.996 193.22C161.264 193.444 161.105 193.88 160.756 193.88V193.88C160.652 193.88 160.552 193.837 160.481 193.76L159.358 192.547C159.199 192.375 159.321 192.095 159.556 192.095V192.095C159.619 192.095 159.681 192.117 159.729 192.158L160.996 193.22ZM157.722 192.095C157.933 192.095 158.132 192.189 158.267 192.351L158.56 192.704C158.948 193.172 158.616 193.88 158.008 193.88H157.864C157.563 193.88 157.293 193.692 157.19 193.408L157.057 193.045C156.889 192.583 157.231 192.095 157.722 192.095V192.095ZM156.843 190.851C156.956 190.851 157.063 190.901 157.135 190.988V190.988C157.34 191.235 157.164 191.608 156.843 191.608H156.798C156.639 191.608 156.497 191.509 156.442 191.359V191.359C156.352 191.112 156.535 190.851 156.798 190.851H156.843ZM158.687 191.284C158.818 191.394 158.741 191.608 158.569 191.608V191.608C158.518 191.608 158.469 191.587 158.434 191.55L158.011 191.093C157.926 191.001 157.991 190.851 158.117 190.851V190.851C158.151 190.851 158.184 190.863 158.21 190.884L158.687 191.284Z" fill="url(#paint1_linear_41_1454)"/>
</g>
<path d="M100.598 71.7403H85.2208V75.6149L100.598 79.4896V71.7403Z" fill="#00497C"/>
<path d="M113.093 75.6149H101.559V79.4896L113.093 83.3643V75.6149Z" fill="#00497C"/>
<path d="M121.742 75.6149H114.054V83.6807L121.742 86.2703V75.6149Z" fill="#00497C"/>
<path d="M126.548 75.6149H122.704V86.5867L126.548 87.8775V75.6149Z" fill="#00497C"/>
<path d="M130.392 75.6149H127.509V88.2076L130.392 89.1763V75.6149Z" fill="#00497C"/>
<path d="M137.601 75.6149H136.159V90.6293L137.601 91.1136V75.6149Z" fill="#00497C"/>
<path d="M135.198 75.6149H133.756V89.9813L135.198 90.4657V75.6149Z" fill="#00497C"/>
<path d="M132.795 75.6149H131.353V89.3352L132.795 89.8196V75.6149Z" fill="#00497C"/>
<g filter="url(#filter3_ddd_41_1454)">
<path d="M130.425 78.9156H127.555V88.6023L130.425 89.6786V78.9156Z" fill="#6BD0F9"/>
</g>
<path d="M177.473 71.7403H192.851V75.6149L177.473 79.4896V71.7403Z" fill="#00497C"/>
<path d="M164.979 75.6149H176.512V79.4896L164.979 83.3643V75.6149Z" fill="#00497C"/>
<path d="M156.329 75.6149H164.018V83.6807L156.329 86.2703V75.6149Z" fill="#00497C"/>
<path d="M151.523 75.6149H155.368V86.5867L151.523 87.8775V75.6149Z" fill="#00497C"/>
<path d="M147.679 75.6149H150.562V88.2076L147.679 89.1763V75.6149Z" fill="#00497C"/>
<path d="M140.471 75.6149H141.912V90.6293L140.471 91.1136V75.6149Z" fill="#00497C"/>
<path d="M142.874 75.6149H144.315V89.9813L142.874 90.4657V75.6149Z" fill="#00497C"/>
<path d="M145.276 75.6149H146.718V89.3352L145.276 89.8196V75.6149Z" fill="#00497C"/>
<path d="M89.1673 92.5489C89.6448 92.549 90.2434 93.0631 90.2435 93.9835C90.2435 94.9041 89.6448 95.419 89.1673 95.4191C88.6898 95.4191 88.0912 94.9041 88.0912 93.9835C88.0913 93.0631 88.6899 92.5489 89.1673 92.5489Z" stroke="#00A1F3" stroke-width="1.43506"/>
<rect x="161.279" y="218.117" width="0.717532" height="7.17532" rx="0.358766" fill="#00A1F3"/>
<rect x="116.075" y="218.117" width="0.717532" height="7.17532" rx="0.358766" fill="#00A1F3"/>
<rect x="195.003" y="203.766" width="7.17532" height="1.43506" rx="0.717532" fill="#00A1F3"/>
<rect x="204.331" y="193.721" width="4.30519" height="0.717532" rx="0.358766" fill="#00A1F3"/>
<rect x="201.461" y="182.24" width="3.58766" height="0.717532" rx="0.358766" fill="#00A1F3"/>
<rect x="200.743" y="206.636" width="1.43506" height="1.43506" rx="0.717532" fill="#00A1F3"/>
<mask id="path-55-inside-1_41_1454" fill="white">
<rect x="199.308" y="137.036" width="2.87013" height="2.87013" rx="0.717532"/>
</mask>
<rect x="199.308" y="137.036" width="2.87013" height="2.87013" rx="0.717532" stroke="#00A1F3" stroke-width="2.87013" mask="url(#path-55-inside-1_41_1454)"/>
<rect x="204.331" y="137.036" width="0.717532" height="65.2955" rx="0.358766" fill="#00A1F3"/>
<rect x="140.471" y="101.877" width="7.89286" height="0.717532" rx="0.358766" fill="#00A1F3"/>
<rect x="140.471" y="104.747" width="2.1526" height="1.43506" rx="0.717532" fill="#00A1F3"/>
<rect width="7.68696" height="0.96087" rx="0.480435" transform="matrix(-1 0 0 1 83.3738 203.885)" fill="#00A1F3"/>
<rect width="3.84348" height="0.96087" rx="0.480435" transform="matrix(-1 0 0 1 73.7651 193.796)" fill="#00A1F3"/>
<rect width="3.84348" height="0.96087" rx="0.480435" transform="matrix(-1 0 0 1 76.6478 182.265)" fill="#00A1F3"/>
<rect width="1.92174" height="1.92174" rx="0.717532" transform="matrix(-1 0 0 1 77.6086 206.287)" fill="#00A1F3"/>
<mask id="path-63-inside-2_41_1454" fill="white">
<rect width="2.88261" height="2.88261" rx="0.717532" transform="matrix(-1 0 0 1 78.5695 137.104)"/>
</mask>
<rect width="2.88261" height="2.88261" rx="0.717532" transform="matrix(-1 0 0 1 78.5695 137.104)" stroke="#00A1F3" stroke-width="2.87013" mask="url(#path-63-inside-2_41_1454)"/>
<rect width="0.96087" height="65.3391" rx="0.480435" transform="matrix(-1 0 0 1 73.7651 137.104)" fill="#00A1F3"/>
<path d="M154.269 207.354C154.605 207.354 154.908 207.543 155.057 207.836L155.11 207.966L157.301 214.781C157.716 216.075 156.751 217.399 155.391 217.399C154.284 217.399 153.387 216.502 153.387 215.394V208.237C153.387 207.749 153.782 207.354 154.269 207.354Z" stroke="#00A1F3" stroke-width="1.43506"/>
<path d="M123.802 207.354C123.466 207.354 123.164 207.543 123.015 207.836L122.961 207.966L120.771 214.781C120.355 216.075 121.32 217.399 122.68 217.399C123.787 217.399 124.685 216.502 124.685 215.394V208.237C124.685 207.749 124.29 207.354 123.802 207.354Z" stroke="#00A1F3" stroke-width="1.43506"/>
<path d="M90.9842 180.446C91.4625 180.446 91.8715 180.289 92.2109 179.973C92.5504 179.657 92.7202 179.277 92.7202 178.832C92.7202 178.387 92.5504 178.007 92.2109 177.691C91.8715 177.375 91.4625 177.218 90.9842 177.218C90.5058 177.218 90.0969 177.375 89.7574 177.691C89.418 178.007 89.2482 178.387 89.2482 178.832C89.2482 179.277 89.418 179.657 89.7574 179.973C90.0969 180.289 90.5058 180.446 90.9842 180.446ZM90.9842 176.141C91.3044 176.141 91.5763 176.037 91.8001 175.829C92.0277 175.617 92.1415 175.363 92.1415 175.065C92.1415 174.767 92.0277 174.514 91.8001 174.306C91.5763 174.094 91.3044 173.989 90.9842 173.989C90.664 173.989 90.3901 174.094 90.1625 174.306C89.9388 174.514 89.8269 174.767 89.8269 175.065C89.8269 175.363 89.9388 175.617 90.1625 175.829C90.3901 176.037 90.664 176.141 90.9842 176.141ZM92.6218 176.588C92.6159 176.593 92.6167 176.603 92.6234 176.607C92.7652 176.702 92.9017 176.809 93.0326 176.927C93.5959 177.454 93.8775 178.089 93.8775 178.832C93.8775 179.575 93.5939 180.21 93.0268 180.737C92.4636 181.261 91.7827 181.523 90.9842 181.523C90.1856 181.523 89.5028 181.261 88.9357 180.737C88.3725 180.21 88.0909 179.575 88.0909 178.832C88.0909 178.089 88.3745 177.454 88.9415 176.927C89.0688 176.809 89.2033 176.702 89.345 176.607C89.3517 176.603 89.3525 176.593 89.3466 176.588C88.8952 176.168 88.6696 175.66 88.6696 175.065C88.6696 174.469 88.8952 173.962 89.3466 173.542C89.7979 173.122 90.3438 172.912 90.9842 172.912C91.6246 172.912 92.1704 173.122 92.6218 173.542C93.0731 173.962 93.2988 174.469 93.2988 175.065C93.2988 175.66 93.0731 176.168 92.6218 176.588Z" fill="#00A1F3"/>
<path d="M95.6134 172.912C95.933 172.912 96.1921 173.171 96.1921 173.491V175.273C96.1921 175.753 96.5807 176.141 97.0601 176.141C97.5394 176.141 97.9281 175.753 97.9281 175.273V173.491C97.9281 173.171 98.1871 172.912 98.5067 172.912C98.8263 172.912 99.0854 173.171 99.0854 173.491V180.944C99.0854 181.264 98.8263 181.523 98.5067 181.523C98.1871 181.523 97.9281 181.264 97.9281 180.944V178.664C97.9281 177.865 97.2804 177.218 96.4814 177.218C95.6825 177.218 95.0348 176.57 95.0348 175.771V173.491C95.0348 173.171 95.2938 172.912 95.6134 172.912Z" fill="#00A1F3"/>
<path d="M106.029 173.45C106.029 173.748 105.788 173.989 105.491 173.989H100.781C100.484 173.989 100.243 173.748 100.243 173.45C100.243 173.153 100.484 172.912 100.781 172.912H105.491C105.788 172.912 106.029 173.153 106.029 173.45ZM101.938 177.218C101.641 177.218 101.4 176.977 101.4 176.679C101.4 176.382 101.641 176.141 101.938 176.141H103.136C103.934 176.141 104.615 176.405 105.179 176.932C105.746 177.456 106.029 178.089 106.029 178.832C106.029 179.575 105.746 180.21 105.179 180.737C104.615 181.261 103.934 181.523 103.136 181.523C102.337 181.523 101.655 181.261 101.088 180.737C100.675 180.351 100.414 179.908 100.303 179.406C100.235 179.094 100.502 178.832 100.821 178.832C101.141 178.832 101.386 179.101 101.505 179.398C101.589 179.609 101.724 179.8 101.909 179.973C102.249 180.289 102.658 180.446 103.136 180.446C103.614 180.446 104.023 180.289 104.363 179.973C104.702 179.657 104.872 179.277 104.872 178.832C104.872 178.387 104.702 178.007 104.363 177.691C104.023 177.375 103.614 177.218 103.136 177.218H101.938Z" fill="#00A1F3"/>
<path d="M102.218 74.0505C102.183 73.9816 102.16 73.9223 102.149 73.8725C102.141 73.8228 102.137 73.729 102.137 73.5912C102.137 73.4497 102.141 73.354 102.149 73.3042C102.16 73.2545 102.17 73.2143 102.178 73.1837C102.189 73.1492 102.21 73.1263 102.241 73.1148C102.275 73.0995 102.317 73.088 102.367 73.0804C102.421 73.0689 102.516 73.0631 102.654 73.0631C102.796 73.0631 102.891 73.0689 102.941 73.0804C102.995 73.088 103.037 73.0976 103.067 73.1091C103.102 73.1205 103.123 73.1397 103.13 73.1665C103.142 73.1933 103.153 73.2353 103.165 73.2928C103.176 73.3502 103.182 73.4497 103.182 73.5912C103.182 73.729 103.176 73.8209 103.165 73.8668C103.153 73.9127 103.14 73.9529 103.125 73.9873C103.113 74.0179 103.09 74.0428 103.056 74.0619C103.021 74.0773 102.981 74.0906 102.935 74.1021C102.889 74.1136 102.796 74.1194 102.654 74.1194C102.516 74.1194 102.424 74.1155 102.378 74.1079C102.332 74.1002 102.279 74.0811 102.218 74.0505ZM103.458 74.0505C103.423 73.9816 103.4 73.9223 103.389 73.8725C103.381 73.8228 103.377 73.729 103.377 73.5912C103.377 73.4497 103.381 73.354 103.389 73.3042C103.4 73.2545 103.41 73.2143 103.417 73.1837C103.429 73.1492 103.45 73.1263 103.481 73.1148C103.515 73.0995 103.557 73.088 103.607 73.0804C103.66 73.0689 103.756 73.0631 103.894 73.0631C104.035 73.0631 104.131 73.0689 104.181 73.0804C104.234 73.088 104.277 73.0976 104.307 73.1091C104.342 73.1205 104.363 73.1397 104.37 73.1665C104.382 73.1933 104.393 73.2353 104.405 73.2928C104.416 73.3502 104.422 73.4497 104.422 73.5912C104.422 73.729 104.416 73.8209 104.405 73.8668C104.393 73.9127 104.38 73.9529 104.365 73.9873C104.353 74.0179 104.33 74.0428 104.296 74.0619C104.261 74.0773 104.221 74.0906 104.175 74.1021C104.129 74.1136 104.035 74.1194 103.894 74.1194C103.756 74.1194 103.664 74.1155 103.618 74.1079C103.572 74.1002 103.519 74.0811 103.458 74.0505ZM103.469 75.2961C103.435 75.2272 103.412 75.1679 103.4 75.1182C103.393 75.0684 103.389 74.9746 103.389 74.8369C103.389 74.6953 103.393 74.5996 103.4 74.5499C103.412 74.5001 103.421 74.4599 103.429 74.4293C103.44 74.3949 103.461 74.3719 103.492 74.3604C103.526 74.3451 103.569 74.3337 103.618 74.326C103.672 74.3145 103.768 74.3088 103.905 74.3088C104.047 74.3088 104.143 74.3145 104.192 74.326C104.246 74.3337 104.288 74.3432 104.319 74.3547C104.353 74.3662 104.374 74.3853 104.382 74.4121C104.393 74.4389 104.405 74.481 104.416 74.5384C104.428 74.5958 104.433 74.6953 104.433 74.8369C104.433 74.9746 104.428 75.0665 104.416 75.1124C104.405 75.1583 104.391 75.1985 104.376 75.233C104.365 75.2636 104.342 75.2884 104.307 75.3076C104.273 75.3229 104.233 75.3363 104.187 75.3478C104.141 75.3592 104.047 75.365 103.905 75.365C103.768 75.365 103.676 75.3612 103.63 75.3535C103.584 75.3459 103.53 75.3267 103.469 75.2961ZM102.218 81.0505C102.183 80.9816 102.16 80.9223 102.149 80.8725C102.141 80.8228 102.137 80.729 102.137 80.5912C102.137 80.4497 102.141 80.354 102.149 80.3042C102.16 80.2545 102.17 80.2143 102.178 80.1837C102.189 80.1492 102.21 80.1263 102.241 80.1148C102.275 80.0995 102.317 80.088 102.367 80.0804C102.421 80.0689 102.516 80.0631 102.654 80.0631C102.796 80.0631 102.891 80.0689 102.941 80.0804C102.995 80.088 103.037 80.0976 103.067 80.1091C103.102 80.1205 103.123 80.1397 103.13 80.1665C103.142 80.1933 103.153 80.2353 103.165 80.2928C103.176 80.3502 103.182 80.4497 103.182 80.5912C103.182 80.729 103.176 80.8209 103.165 80.8668C103.153 80.9127 103.14 80.9529 103.125 80.9873C103.113 81.0179 103.09 81.0428 103.056 81.0619C103.021 81.0773 102.981 81.0906 102.935 81.1021C102.889 81.1136 102.796 81.1194 102.654 81.1194C102.516 81.1194 102.424 81.1155 102.378 81.1079C102.332 81.1002 102.279 81.0811 102.218 81.0505Z" fill="#00A1F3"/>
<path d="M115.656 74.0505C115.621 73.9816 115.598 73.9223 115.587 73.8725C115.579 73.8228 115.575 73.729 115.575 73.5912C115.575 73.4497 115.579 73.354 115.587 73.3042C115.598 73.2545 115.608 73.2143 115.615 73.1837C115.627 73.1492 115.648 73.1263 115.679 73.1148C115.713 73.0995 115.755 73.088 115.805 73.0804C115.858 73.0689 115.954 73.0631 116.092 73.0631C116.233 73.0631 116.329 73.0689 116.379 73.0804C116.432 73.088 116.475 73.0976 116.505 73.1091C116.54 73.1205 116.561 73.1397 116.568 73.1665C116.58 73.1933 116.591 73.2353 116.603 73.2928C116.614 73.3502 116.62 73.4497 116.62 73.5912C116.62 73.729 116.614 73.8209 116.603 73.8668C116.591 73.9127 116.578 73.9529 116.563 73.9873C116.551 74.0179 116.528 74.0428 116.494 74.0619C116.459 74.0773 116.419 74.0906 116.373 74.1021C116.327 74.1136 116.233 74.1194 116.092 74.1194C115.954 74.1194 115.862 74.1155 115.816 74.1079C115.77 74.1002 115.717 74.0811 115.656 74.0505ZM114.387 75.2157L114.364 74.9804V73.4133C114.368 73.2564 114.385 73.1626 114.416 73.132C114.45 73.1014 114.496 73.0823 114.554 73.0746C114.615 73.067 114.714 73.0631 114.852 73.0631C114.994 73.0631 115.091 73.0689 115.145 73.0804C115.202 73.088 115.248 73.1033 115.283 73.1263C115.317 73.1492 115.338 73.2296 115.346 73.3674V74.9632C115.338 75.1201 115.321 75.2177 115.294 75.2559C115.267 75.2904 115.221 75.3172 115.156 75.3363C115.095 75.3516 114.994 75.3592 114.852 75.3592C114.714 75.3592 114.615 75.3535 114.554 75.342C114.496 75.3267 114.441 75.2846 114.387 75.2157ZM114.416 81.0505C114.381 80.9816 114.358 80.9223 114.347 80.8725C114.339 80.8228 114.335 80.729 114.335 80.5912C114.335 80.4497 114.339 80.354 114.347 80.3042C114.358 80.2545 114.368 80.2143 114.376 80.1837C114.387 80.1492 114.408 80.1263 114.439 80.1148C114.473 80.0995 114.515 80.088 114.565 80.0804C114.619 80.0689 114.714 80.0631 114.852 80.0631C114.994 80.0631 115.089 80.0689 115.139 80.0804C115.193 80.088 115.235 80.0976 115.265 80.1091C115.3 80.1205 115.321 80.1397 115.328 80.1665C115.34 80.1933 115.351 80.2353 115.363 80.2928C115.374 80.3502 115.38 80.4497 115.38 80.5912C115.38 80.729 115.374 80.8209 115.363 80.8668C115.351 80.9127 115.338 80.9529 115.323 80.9873C115.311 81.0179 115.288 81.0428 115.254 81.0619C115.219 81.0773 115.179 81.0906 115.133 81.1021C115.087 81.1136 114.994 81.1194 114.852 81.1194C114.714 81.1194 114.622 81.1155 114.576 81.1079C114.531 81.1002 114.477 81.0811 114.416 81.0505Z" fill="#00A1F3"/>
<path d="M124.266 74.0505C124.232 73.9816 124.209 73.9223 124.197 73.8725C124.189 73.8228 124.186 73.729 124.186 73.5912C124.186 73.4497 124.189 73.354 124.197 73.3042C124.209 73.2545 124.218 73.2143 124.226 73.1837C124.237 73.1492 124.258 73.1263 124.289 73.1148C124.323 73.0995 124.366 73.088 124.415 73.0804C124.469 73.0689 124.565 73.0631 124.702 73.0631C124.844 73.0631 124.94 73.0689 124.989 73.0804C125.043 73.088 125.085 73.0976 125.116 73.1091C125.15 73.1205 125.171 73.1397 125.179 73.1665C125.19 73.1933 125.202 73.2353 125.213 73.2928C125.225 73.3502 125.23 73.4497 125.23 73.5912C125.23 73.729 125.225 73.8209 125.213 73.8668C125.202 73.9127 125.188 73.9529 125.173 73.9873C125.162 74.0179 125.139 74.0428 125.104 74.0619C125.07 74.0773 125.029 74.0906 124.984 74.1021C124.938 74.1136 124.844 74.1194 124.702 74.1194C124.565 74.1194 124.473 74.1155 124.427 74.1079C124.381 74.1002 124.327 74.0811 124.266 74.0505ZM124.278 75.2961C124.243 75.2272 124.22 75.1679 124.209 75.1182C124.201 75.0684 124.197 74.9746 124.197 74.8369C124.197 74.6953 124.201 74.5996 124.209 74.5499C124.22 74.5001 124.23 74.4599 124.237 74.4293C124.249 74.3949 124.27 74.3719 124.3 74.3604C124.335 74.3451 124.377 74.3337 124.427 74.326C124.48 74.3145 124.576 74.3088 124.714 74.3088C124.855 74.3088 124.951 74.3145 125.001 74.326C125.054 74.3337 125.096 74.3432 125.127 74.3547C125.162 74.3662 125.183 74.3853 125.19 74.4121C125.202 74.4389 125.213 74.481 125.225 74.5384C125.236 74.5958 125.242 74.6953 125.242 74.8369C125.242 74.9746 125.236 75.0665 125.225 75.1124C125.213 75.1583 125.2 75.1985 125.184 75.233C125.173 75.2636 125.15 75.2884 125.116 75.3076C125.081 75.3229 125.041 75.3363 124.995 75.3478C124.949 75.3592 124.855 75.365 124.714 75.365C124.576 75.365 124.484 75.3612 124.438 75.3535C124.392 75.3459 124.339 75.3267 124.278 75.2961ZM124.266 76.513C124.232 76.4442 124.209 76.3848 124.197 76.3351C124.189 76.2853 124.186 76.1916 124.186 76.0538C124.186 75.9122 124.189 75.8166 124.197 75.7668C124.209 75.7171 124.218 75.6769 124.226 75.6463C124.237 75.6118 124.258 75.5889 124.289 75.5774C124.323 75.5621 124.366 75.5506 124.415 75.5429C124.469 75.5315 124.565 75.5257 124.702 75.5257C124.844 75.5257 124.94 75.5315 124.989 75.5429C125.043 75.5506 125.085 75.5602 125.116 75.5716C125.15 75.5831 125.171 75.6023 125.179 75.629C125.19 75.6558 125.202 75.6979 125.213 75.7553C125.225 75.8127 125.23 75.9122 125.23 76.0538C125.23 76.1916 125.225 76.2834 125.213 76.3294C125.202 76.3753 125.188 76.4155 125.173 76.4499C125.162 76.4805 125.139 76.5054 125.104 76.5245C125.07 76.5398 125.029 76.5532 124.984 76.5647C124.938 76.5762 124.844 76.5819 124.702 76.5819C124.565 76.5819 124.473 76.5781 124.427 76.5704C124.381 76.5628 124.327 76.5437 124.266 76.513ZM122.997 75.2157L122.974 74.9804V73.4133C122.978 73.2564 122.996 73.1626 123.026 73.132C123.061 73.1014 123.106 73.0823 123.164 73.0746C123.225 73.067 123.325 73.0631 123.462 73.0631C123.604 73.0631 123.702 73.0689 123.755 73.0804C123.813 73.088 123.858 73.1033 123.893 73.1263C123.927 73.1492 123.948 73.2296 123.956 73.3674V74.9632C123.948 75.1201 123.931 75.2177 123.904 75.2559C123.878 75.2904 123.832 75.3172 123.767 75.3363C123.705 75.3516 123.604 75.3592 123.462 75.3592C123.325 75.3592 123.225 75.3535 123.164 75.342C123.106 75.3267 123.051 75.2846 122.997 75.2157ZM123.026 81.0505C122.992 80.9816 122.969 80.9223 122.957 80.8725C122.95 80.8228 122.946 80.729 122.946 80.5912C122.946 80.4497 122.95 80.354 122.957 80.3042C122.969 80.2545 122.978 80.2143 122.986 80.1837C122.997 80.1492 123.018 80.1263 123.049 80.1148C123.084 80.0995 123.126 80.088 123.175 80.0804C123.229 80.0689 123.325 80.0631 123.462 80.0631C123.604 80.0631 123.7 80.0689 123.749 80.0804C123.803 80.088 123.845 80.0976 123.876 80.1091C123.91 80.1205 123.931 80.1397 123.939 80.1665C123.95 80.1933 123.962 80.2353 123.973 80.2928C123.985 80.3502 123.99 80.4497 123.99 80.5912C123.99 80.729 123.985 80.8209 123.973 80.8668C123.962 80.9127 123.948 80.9529 123.933 80.9873C123.922 81.0179 123.899 81.0428 123.864 81.0619C123.83 81.0773 123.79 81.0906 123.744 81.1021C123.698 81.1136 123.604 81.1194 123.462 81.1194C123.325 81.1194 123.233 81.1155 123.187 81.1079C123.141 81.1002 123.087 81.0811 123.026 81.0505Z" fill="#00A1F3"/>
<path d="M128.026 76.3982L127.997 76.0022V73.597C128.005 73.3674 128.02 73.2277 128.043 73.1779C128.066 73.1282 128.11 73.0976 128.175 73.0861C128.244 73.0708 128.347 73.0631 128.485 73.0631C128.627 73.0631 128.734 73.067 128.807 73.0746C128.883 73.0823 128.931 73.1129 128.95 73.1665C128.969 73.2162 128.979 73.3368 128.979 73.5281V75.9677C128.975 76.2432 128.96 76.4059 128.933 76.4556C128.91 76.5054 128.864 76.5398 128.795 76.559C128.73 76.5743 128.627 76.5819 128.485 76.5819C128.347 76.5819 128.244 76.5724 128.175 76.5532C128.106 76.5303 128.057 76.4786 128.026 76.3982ZM129.289 74.0505C129.254 73.9816 129.231 73.9223 129.22 73.8725C129.212 73.8228 129.208 73.729 129.208 73.5912C129.208 73.4497 129.212 73.354 129.22 73.3042C129.231 73.2545 129.241 73.2143 129.249 73.1837C129.26 73.1492 129.281 73.1263 129.312 73.1148C129.346 73.0995 129.388 73.088 129.438 73.0804C129.492 73.0689 129.587 73.0631 129.725 73.0631C129.867 73.0631 129.962 73.0689 130.012 73.0804C130.066 73.088 130.108 73.0976 130.138 73.1091C130.173 73.1205 130.194 73.1397 130.201 73.1665C130.213 73.1933 130.224 73.2353 130.236 73.2928C130.247 73.3502 130.253 73.4497 130.253 73.5912C130.253 73.729 130.247 73.8209 130.236 73.8668C130.224 73.9127 130.211 73.9529 130.196 73.9873C130.184 74.0179 130.161 74.0428 130.127 74.0619C130.092 74.0773 130.052 74.0906 130.006 74.1021C129.96 74.1136 129.867 74.1194 129.725 74.1194C129.587 74.1194 129.495 74.1155 129.449 74.1079C129.404 74.1002 129.35 74.0811 129.289 74.0505ZM129.3 75.2961C129.266 75.2272 129.243 75.1679 129.231 75.1182C129.224 75.0684 129.22 74.9746 129.22 74.8369C129.22 74.6953 129.224 74.5996 129.231 74.5499C129.243 74.5001 129.252 74.4599 129.26 74.4293C129.272 74.3949 129.293 74.3719 129.323 74.3604C129.358 74.3451 129.4 74.3337 129.449 74.326C129.503 74.3145 129.599 74.3088 129.737 74.3088C129.878 74.3088 129.974 74.3145 130.024 74.326C130.077 74.3337 130.119 74.3432 130.15 74.3547C130.184 74.3662 130.205 74.3853 130.213 74.4121C130.224 74.4389 130.236 74.481 130.247 74.5384C130.259 74.5958 130.265 74.6953 130.265 74.8369C130.265 74.9746 130.259 75.0665 130.247 75.1124C130.236 75.1583 130.223 75.1985 130.207 75.233C130.196 75.2636 130.173 75.2884 130.138 75.3076C130.104 75.3229 130.064 75.3363 130.018 75.3478C129.972 75.3592 129.878 75.365 129.737 75.365C129.599 75.365 129.507 75.3612 129.461 75.3535C129.415 75.3459 129.361 75.3267 129.3 75.2961ZM128.049 81.0505C128.014 80.9816 127.991 80.9223 127.98 80.8725C127.972 80.8228 127.969 80.729 127.969 80.5912C127.969 80.4497 127.972 80.354 127.98 80.3042C127.991 80.2545 128.001 80.2143 128.009 80.1837C128.02 80.1492 128.041 80.1263 128.072 80.1148C128.106 80.0995 128.148 80.088 128.198 80.0804C128.252 80.0689 128.347 80.0631 128.485 80.0631C128.627 80.0631 128.722 80.0689 128.772 80.0804C128.826 80.088 128.868 80.0976 128.898 80.1091C128.933 80.1205 128.954 80.1397 128.962 80.1665C128.973 80.1933 128.985 80.2353 128.996 80.2928C129.007 80.3502 129.013 80.4497 129.013 80.5912C129.013 80.729 129.007 80.8209 128.996 80.8668C128.985 80.9127 128.971 80.9529 128.956 80.9873C128.944 81.0179 128.921 81.0428 128.887 81.0619C128.853 81.0773 128.812 81.0906 128.766 81.1021C128.72 81.1136 128.627 81.1194 128.485 81.1194C128.347 81.1194 128.256 81.1155 128.21 81.1079C128.164 81.1002 128.11 81.0811 128.049 81.0505Z" fill="#00A1F3"/>
<path d="M133.072 74.0505C133.037 73.9816 133.014 73.9223 133.003 73.8725C132.995 73.8228 132.991 73.729 132.991 73.5912C132.991 73.4497 132.995 73.354 133.003 73.3042C133.014 73.2545 133.024 73.2143 133.031 73.1837C133.043 73.1492 133.064 73.1263 133.095 73.1148C133.129 73.0995 133.171 73.088 133.221 73.0804C133.274 73.0689 133.37 73.0631 133.508 73.0631C133.649 73.0631 133.745 73.0689 133.795 73.0804C133.848 73.088 133.891 73.0976 133.921 73.1091C133.956 73.1205 133.977 73.1397 133.984 73.1665C133.996 73.1933 134.007 73.2353 134.019 73.2928C134.03 73.3502 134.036 73.4497 134.036 73.5912C134.036 73.729 134.03 73.8209 134.019 73.8668C134.007 73.9127 133.994 73.9529 133.979 73.9873C133.967 74.0179 133.944 74.0428 133.91 74.0619C133.875 74.0773 133.835 74.0906 133.789 74.1021C133.743 74.1136 133.649 74.1194 133.508 74.1194C133.37 74.1194 133.278 74.1155 133.232 74.1079C133.186 74.1002 133.133 74.0811 133.072 74.0505ZM134.311 74.0505C134.277 73.9816 134.254 73.9223 134.243 73.8725C134.235 73.8228 134.231 73.729 134.231 73.5912C134.231 73.4497 134.235 73.354 134.243 73.3042C134.254 73.2545 134.264 73.2143 134.271 73.1837C134.283 73.1492 134.304 73.1263 134.334 73.1148C134.369 73.0995 134.411 73.088 134.461 73.0804C134.514 73.0689 134.61 73.0631 134.748 73.0631C134.889 73.0631 134.985 73.0689 135.035 73.0804C135.088 73.088 135.13 73.0976 135.161 73.1091C135.195 73.1205 135.217 73.1397 135.224 73.1665C135.236 73.1933 135.247 73.2353 135.259 73.2928C135.27 73.3502 135.276 73.4497 135.276 73.5912C135.276 73.729 135.27 73.8209 135.259 73.8668C135.247 73.9127 135.234 73.9529 135.218 73.9873C135.207 74.0179 135.184 74.0428 135.15 74.0619C135.115 74.0773 135.075 74.0906 135.029 74.1021C134.983 74.1136 134.889 74.1194 134.748 74.1194C134.61 74.1194 134.518 74.1155 134.472 74.1079C134.426 74.1002 134.373 74.0811 134.311 74.0505ZM136.127 74.0505C136.092 73.9816 136.069 73.9223 136.058 73.8725C136.05 73.8228 136.046 73.729 136.046 73.5912C136.046 73.4497 136.05 73.354 136.058 73.3042C136.069 73.2545 136.079 73.2143 136.087 73.1837C136.098 73.1492 136.119 73.1263 136.15 73.1148C136.184 73.0995 136.226 73.088 136.276 73.0804C136.33 73.0689 136.425 73.0631 136.563 73.0631C136.705 73.0631 136.8 73.0689 136.85 73.0804C136.904 73.088 136.946 73.0976 136.976 73.1091C137.011 73.1205 137.032 73.1397 137.039 73.1665C137.051 73.1933 137.062 73.2353 137.074 73.2928C137.085 73.3502 137.091 73.4497 137.091 73.5912C137.091 73.729 137.085 73.8209 137.074 73.8668C137.062 73.9127 137.049 73.9529 137.034 73.9873C137.022 74.0179 136.999 74.0428 136.965 74.0619C136.93 74.0773 136.89 74.0906 136.844 74.1021C136.798 74.1136 136.705 74.1194 136.563 74.1194C136.425 74.1194 136.333 74.1155 136.287 74.1079C136.241 74.1002 136.188 74.0811 136.127 74.0505ZM133.072 81.0505C133.037 80.9816 133.014 80.9223 133.003 80.8725C132.995 80.8228 132.991 80.729 132.991 80.5912C132.991 80.4497 132.995 80.354 133.003 80.3042C133.014 80.2545 133.024 80.2143 133.031 80.1837C133.043 80.1492 133.064 80.1263 133.095 80.1148C133.129 80.0995 133.171 80.088 133.221 80.0804C133.274 80.0689 133.37 80.0631 133.508 80.0631C133.649 80.0631 133.745 80.0689 133.795 80.0804C133.848 80.088 133.891 80.0976 133.921 80.1091C133.956 80.1205 133.977 80.1397 133.984 80.1665C133.996 80.1933 134.007 80.2353 134.019 80.2928C134.03 80.3502 134.036 80.4497 134.036 80.5912C134.036 80.729 134.03 80.8209 134.019 80.8668C134.007 80.9127 133.994 80.9529 133.979 80.9873C133.967 81.0179 133.944 81.0428 133.91 81.0619C133.875 81.0773 133.835 81.0906 133.789 81.1021C133.743 81.1136 133.649 81.1194 133.508 81.1194C133.37 81.1194 133.278 81.1155 133.232 81.1079C133.186 81.1002 133.133 81.0811 133.072 81.0505Z" fill="#00A1F3"/>
<path d="M140.964 74.0505C140.93 73.9816 140.907 73.9223 140.896 73.8725C140.888 73.8228 140.884 73.729 140.884 73.5912C140.884 73.4497 140.888 73.354 140.896 73.3042C140.907 73.2545 140.917 73.2143 140.924 73.1837C140.936 73.1492 140.957 73.1263 140.987 73.1148C141.022 73.0995 141.064 73.088 141.114 73.0804C141.167 73.0689 141.263 73.0631 141.401 73.0631C141.542 73.0631 141.638 73.0689 141.688 73.0804C141.741 73.088 141.783 73.0976 141.814 73.1091C141.848 73.1205 141.869 73.1397 141.877 73.1665C141.889 73.1933 141.9 73.2353 141.912 73.2928C141.923 73.3502 141.929 73.4497 141.929 73.5912C141.929 73.729 141.923 73.8209 141.912 73.8668C141.9 73.9127 141.887 73.9529 141.871 73.9873C141.86 74.0179 141.837 74.0428 141.803 74.0619C141.768 74.0773 141.728 74.0906 141.682 74.1021C141.636 74.1136 141.542 74.1194 141.401 74.1194C141.263 74.1194 141.171 74.1155 141.125 74.1079C141.079 74.1002 141.026 74.0811 140.964 74.0505ZM142.204 74.0505C142.17 73.9816 142.147 73.9223 142.135 73.8725C142.128 73.8228 142.124 73.729 142.124 73.5912C142.124 73.4497 142.128 73.354 142.135 73.3042C142.147 73.2545 142.156 73.2143 142.164 73.1837C142.176 73.1492 142.197 73.1263 142.227 73.1148C142.262 73.0995 142.304 73.088 142.354 73.0804C142.407 73.0689 142.503 73.0631 142.641 73.0631C142.782 73.0631 142.878 73.0689 142.928 73.0804C142.981 73.088 143.023 73.0976 143.054 73.1091C143.088 73.1205 143.109 73.1397 143.117 73.1665C143.129 73.1933 143.14 73.2353 143.151 73.2928C143.163 73.3502 143.169 73.4497 143.169 73.5912C143.169 73.729 143.163 73.8209 143.151 73.8668C143.14 73.9127 143.127 73.9529 143.111 73.9873C143.1 74.0179 143.077 74.0428 143.042 74.0619C143.008 74.0773 142.968 74.0906 142.922 74.1021C142.876 74.1136 142.782 74.1194 142.641 74.1194C142.503 74.1194 142.411 74.1155 142.365 74.1079C142.319 74.1002 142.266 74.0811 142.204 74.0505ZM140.964 81.0505C140.93 80.9816 140.907 80.9223 140.896 80.8725C140.888 80.8228 140.884 80.729 140.884 80.5912C140.884 80.4497 140.888 80.354 140.896 80.3042C140.907 80.2545 140.917 80.2143 140.924 80.1837C140.936 80.1492 140.957 80.1263 140.987 80.1148C141.022 80.0995 141.064 80.088 141.114 80.0804C141.167 80.0689 141.263 80.0631 141.401 80.0631C141.542 80.0631 141.638 80.0689 141.688 80.0804C141.741 80.088 141.783 80.0976 141.814 80.1091C141.848 80.1205 141.869 80.1397 141.877 80.1665C141.889 80.1933 141.9 80.2353 141.912 80.2928C141.923 80.3502 141.929 80.4497 141.929 80.5912C141.929 80.729 141.923 80.8209 141.912 80.8668C141.9 80.9127 141.887 80.9529 141.871 80.9873C141.86 81.0179 141.837 81.0428 141.803 81.0619C141.768 81.0773 141.728 81.0906 141.682 81.1021C141.636 81.1136 141.542 81.1194 141.401 81.1194C141.263 81.1194 141.171 81.1155 141.125 81.1079C141.079 81.1002 141.026 81.0811 140.964 81.0505ZM142.204 81.0505C142.17 80.9816 142.147 80.9223 142.135 80.8725C142.128 80.8228 142.124 80.729 142.124 80.5912C142.124 80.4497 142.128 80.354 142.135 80.3042C142.147 80.2545 142.156 80.2143 142.164 80.1837C142.176 80.1492 142.197 80.1263 142.227 80.1148C142.262 80.0995 142.304 80.088 142.354 80.0804C142.407 80.0689 142.503 80.0631 142.641 80.0631C142.782 80.0631 142.878 80.0689 142.928 80.0804C142.981 80.088 143.023 80.0976 143.054 80.1091C143.088 80.1205 143.109 80.1397 143.117 80.1665C143.129 80.1933 143.14 80.2353 143.151 80.2928C143.163 80.3502 143.169 80.4497 143.169 80.5912C143.169 80.729 143.163 80.8209 143.151 80.8668C143.14 80.9127 143.127 80.9529 143.111 80.9873C143.1 81.0179 143.077 81.0428 143.042 81.0619C143.008 81.0773 142.968 81.0906 142.922 81.1021C142.876 81.1136 142.782 81.1194 142.641 81.1194C142.503 81.1194 142.411 81.1155 142.365 81.1079C142.319 81.1002 142.266 81.0811 142.204 81.0505ZM142.216 82.2961C142.181 82.2272 142.158 82.1679 142.147 82.1182C142.139 82.0684 142.135 81.9746 142.135 81.8369C142.135 81.6953 142.139 81.5996 142.147 81.5499C142.158 81.5001 142.168 81.4599 142.176 81.4293C142.187 81.3949 142.208 81.3719 142.239 81.3604C142.273 81.3451 142.315 81.3337 142.365 81.326C142.419 81.3145 142.514 81.3088 142.652 81.3088C142.794 81.3088 142.889 81.3145 142.939 81.326C142.993 81.3337 143.035 81.3432 143.065 81.3547C143.1 81.3662 143.121 81.3853 143.129 81.4121C143.14 81.4389 143.151 81.481 143.163 81.5384C143.174 81.5958 143.18 81.6953 143.18 81.8369C143.18 81.9746 143.174 82.0665 143.163 82.1124C143.151 82.1583 143.138 82.1985 143.123 82.233C143.111 82.2636 143.088 82.2884 143.054 82.3076C143.019 82.3229 142.979 82.3363 142.933 82.3478C142.887 82.3592 142.794 82.365 142.652 82.365C142.514 82.365 142.422 82.3612 142.377 82.3535C142.331 82.3459 142.277 82.3267 142.216 82.2961ZM144.02 81.0505C143.985 80.9816 143.962 80.9223 143.951 80.8725C143.943 80.8228 143.939 80.729 143.939 80.5912C143.939 80.4497 143.943 80.354 143.951 80.3042C143.962 80.2545 143.972 80.2143 143.979 80.1837C143.991 80.1492 144.012 80.1263 144.043 80.1148C144.077 80.0995 144.119 80.088 144.169 80.0804C144.222 80.0689 144.318 80.0631 144.456 80.0631C144.597 80.0631 144.693 80.0689 144.743 80.0804C144.796 80.088 144.838 80.0976 144.869 80.1091C144.904 80.1205 144.925 80.1397 144.932 80.1665C144.944 80.1933 144.955 80.2353 144.967 80.2928C144.978 80.3502 144.984 80.4497 144.984 80.5912C144.984 80.729 144.978 80.8209 144.967 80.8668C144.955 80.9127 144.942 80.9529 144.927 80.9873C144.915 81.0179 144.892 81.0428 144.858 81.0619C144.823 81.0773 144.783 81.0906 144.737 81.1021C144.691 81.1136 144.597 81.1194 144.456 81.1194C144.318 81.1194 144.226 81.1155 144.18 81.1079C144.134 81.1002 144.081 81.0811 144.02 81.0505Z" fill="#00A1F3"/>
<path d="M150.292 74.0505C150.258 73.9816 150.235 73.9223 150.223 73.8725C150.216 73.8228 150.212 73.729 150.212 73.5912C150.212 73.4497 150.216 73.354 150.223 73.3042C150.235 73.2545 150.245 73.2143 150.252 73.1837C150.264 73.1492 150.285 73.1263 150.315 73.1148C150.35 73.0995 150.392 73.088 150.442 73.0804C150.495 73.0689 150.591 73.0631 150.729 73.0631C150.87 73.0631 150.966 73.0689 151.016 73.0804C151.069 73.088 151.111 73.0976 151.142 73.1091C151.176 73.1205 151.197 73.1397 151.205 73.1665C151.217 73.1933 151.228 73.2353 151.24 73.2928C151.251 73.3502 151.257 73.4497 151.257 73.5912C151.257 73.729 151.251 73.8209 151.24 73.8668C151.228 73.9127 151.215 73.9529 151.199 73.9873C151.188 74.0179 151.165 74.0428 151.13 74.0619C151.096 74.0773 151.056 74.0906 151.01 74.1021C150.964 74.1136 150.87 74.1194 150.729 74.1194C150.591 74.1194 150.499 74.1155 150.453 74.1079C150.407 74.1002 150.354 74.0811 150.292 74.0505ZM151.532 74.0505C151.498 73.9816 151.475 73.9223 151.463 73.8725C151.456 73.8228 151.452 73.729 151.452 73.5912C151.452 73.4497 151.456 73.354 151.463 73.3042C151.475 73.2545 151.484 73.2143 151.492 73.1837C151.504 73.1492 151.525 73.1263 151.555 73.1148C151.59 73.0995 151.632 73.088 151.682 73.0804C151.735 73.0689 151.831 73.0631 151.969 73.0631C152.11 73.0631 152.206 73.0689 152.256 73.0804C152.309 73.088 152.351 73.0976 152.382 73.1091C152.416 73.1205 152.437 73.1397 152.445 73.1665C152.456 73.1933 152.468 73.2353 152.479 73.2928C152.491 73.3502 152.497 73.4497 152.497 73.5912C152.497 73.729 152.491 73.8209 152.479 73.8668C152.468 73.9127 152.455 73.9529 152.439 73.9873C152.428 74.0179 152.405 74.0428 152.37 74.0619C152.336 74.0773 152.296 74.0906 152.25 74.1021C152.204 74.1136 152.11 74.1194 151.969 74.1194C151.831 74.1194 151.739 74.1155 151.693 74.1079C151.647 74.1002 151.593 74.0811 151.532 74.0505ZM154.587 74.0505C154.553 73.9816 154.53 73.9223 154.519 73.8725C154.511 73.8228 154.507 73.729 154.507 73.5912C154.507 73.4497 154.511 73.354 154.519 73.3042C154.53 73.2545 154.54 73.2143 154.547 73.1837C154.559 73.1492 154.58 73.1263 154.61 73.1148C154.645 73.0995 154.687 73.088 154.737 73.0804C154.79 73.0689 154.886 73.0631 155.024 73.0631C155.165 73.0631 155.261 73.0689 155.311 73.0804C155.364 73.088 155.406 73.0976 155.437 73.1091C155.471 73.1205 155.492 73.1397 155.5 73.1665C155.512 73.1933 155.523 73.2353 155.535 73.2928C155.546 73.3502 155.552 73.4497 155.552 73.5912C155.552 73.729 155.546 73.8209 155.535 73.8668C155.523 73.9127 155.51 73.9529 155.494 73.9873C155.483 74.0179 155.46 74.0428 155.425 74.0619C155.391 74.0773 155.351 74.0906 155.305 74.1021C155.259 74.1136 155.165 74.1194 155.024 74.1194C154.886 74.1194 154.794 74.1155 154.748 74.1079C154.702 74.1002 154.649 74.0811 154.587 74.0505ZM153.319 75.2157L153.296 74.9804V73.4133C153.3 73.2564 153.317 73.1626 153.347 73.132C153.382 73.1014 153.428 73.0823 153.485 73.0746C153.546 73.067 153.646 73.0631 153.784 73.0631C153.925 73.0631 154.023 73.0689 154.077 73.0804C154.134 73.088 154.18 73.1033 154.214 73.1263C154.249 73.1492 154.27 73.2296 154.277 73.3674V74.9632C154.27 75.1201 154.253 75.2177 154.226 75.2559C154.199 75.2904 154.153 75.3172 154.088 75.3363C154.027 75.3516 153.925 75.3592 153.784 75.3592C153.646 75.3592 153.546 75.3535 153.485 75.342C153.428 75.3267 153.372 75.2846 153.319 75.2157ZM150.292 81.0505C150.258 80.9816 150.235 80.9223 150.223 80.8725C150.216 80.8228 150.212 80.729 150.212 80.5912C150.212 80.4497 150.216 80.354 150.223 80.3042C150.235 80.2545 150.245 80.2143 150.252 80.1837C150.264 80.1492 150.285 80.1263 150.315 80.1148C150.35 80.0995 150.392 80.088 150.442 80.0804C150.495 80.0689 150.591 80.0631 150.729 80.0631C150.87 80.0631 150.966 80.0689 151.016 80.0804C151.069 80.088 151.111 80.0976 151.142 80.1091C151.176 80.1205 151.197 80.1397 151.205 80.1665C151.217 80.1933 151.228 80.2353 151.24 80.2928C151.251 80.3502 151.257 80.4497 151.257 80.5912C151.257 80.729 151.251 80.8209 151.24 80.8668C151.228 80.9127 151.215 80.9529 151.199 80.9873C151.188 81.0179 151.165 81.0428 151.13 81.0619C151.096 81.0773 151.056 81.0906 151.01 81.1021C150.964 81.1136 150.87 81.1194 150.729 81.1194C150.591 81.1194 150.499 81.1155 150.453 81.1079C150.407 81.1002 150.354 81.0811 150.292 81.0505Z" fill="#00A1F3"/>
<path d="M158.185 74.0505C158.151 73.9816 158.128 73.9223 158.116 73.8725C158.109 73.8228 158.105 73.729 158.105 73.5912C158.105 73.4497 158.109 73.354 158.116 73.3042C158.128 73.2545 158.137 73.2143 158.145 73.1837C158.157 73.1492 158.178 73.1263 158.208 73.1148C158.243 73.0995 158.285 73.088 158.334 73.0804C158.388 73.0689 158.484 73.0631 158.621 73.0631C158.763 73.0631 158.859 73.0689 158.908 73.0804C158.962 73.088 159.004 73.0976 159.035 73.1091C159.069 73.1205 159.09 73.1397 159.098 73.1665C159.109 73.1933 159.121 73.2353 159.132 73.2928C159.144 73.3502 159.15 73.4497 159.15 73.5912C159.15 73.729 159.144 73.8209 159.132 73.8668C159.121 73.9127 159.107 73.9529 159.092 73.9873C159.081 74.0179 159.058 74.0428 159.023 74.0619C158.989 74.0773 158.949 74.0906 158.903 74.1021C158.857 74.1136 158.763 74.1194 158.621 74.1194C158.484 74.1194 158.392 74.1155 158.346 74.1079C158.3 74.1002 158.246 74.0811 158.185 74.0505ZM159.425 74.0505C159.391 73.9816 159.368 73.9223 159.356 73.8725C159.349 73.8228 159.345 73.729 159.345 73.5912C159.345 73.4497 159.349 73.354 159.356 73.3042C159.368 73.2545 159.377 73.2143 159.385 73.1837C159.396 73.1492 159.417 73.1263 159.448 73.1148C159.483 73.0995 159.525 73.088 159.574 73.0804C159.628 73.0689 159.724 73.0631 159.861 73.0631C160.003 73.0631 160.099 73.0689 160.148 73.0804C160.202 73.088 160.244 73.0976 160.275 73.1091C160.309 73.1205 160.33 73.1397 160.338 73.1665C160.349 73.1933 160.361 73.2353 160.372 73.2928C160.384 73.3502 160.389 73.4497 160.389 73.5912C160.389 73.729 160.384 73.8209 160.372 73.8668C160.361 73.9127 160.347 73.9529 160.332 73.9873C160.321 74.0179 160.298 74.0428 160.263 74.0619C160.229 74.0773 160.189 74.0906 160.143 74.1021C160.097 74.1136 160.003 74.1194 159.861 74.1194C159.724 74.1194 159.632 74.1155 159.586 74.1079C159.54 74.1002 159.486 74.0811 159.425 74.0505ZM162.48 74.0505C162.446 73.9816 162.423 73.9223 162.411 73.8725C162.404 73.8228 162.4 73.729 162.4 73.5912C162.4 73.4497 162.404 73.354 162.411 73.3042C162.423 73.2545 162.432 73.2143 162.44 73.1837C162.452 73.1492 162.473 73.1263 162.503 73.1148C162.538 73.0995 162.58 73.088 162.629 73.0804C162.683 73.0689 162.779 73.0631 162.916 73.0631C163.058 73.0631 163.154 73.0689 163.204 73.0804C163.257 73.088 163.299 73.0976 163.33 73.1091C163.364 73.1205 163.385 73.1397 163.393 73.1665C163.404 73.1933 163.416 73.2353 163.427 73.2928C163.439 73.3502 163.445 73.4497 163.445 73.5912C163.445 73.729 163.439 73.8209 163.427 73.8668C163.416 73.9127 163.403 73.9529 163.387 73.9873C163.376 74.0179 163.353 74.0428 163.318 74.0619C163.284 74.0773 163.244 74.0906 163.198 74.1021C163.152 74.1136 163.058 74.1194 162.916 74.1194C162.779 74.1194 162.687 74.1155 162.641 74.1079C162.595 74.1002 162.541 74.0811 162.48 74.0505ZM162.492 75.2961C162.457 75.2272 162.434 75.1679 162.423 75.1182C162.415 75.0684 162.411 74.9746 162.411 74.8369C162.411 74.6953 162.415 74.5996 162.423 74.5499C162.434 74.5001 162.444 74.4599 162.452 74.4293C162.463 74.3949 162.484 74.3719 162.515 74.3604C162.549 74.3451 162.591 74.3337 162.641 74.326C162.695 74.3145 162.79 74.3088 162.928 74.3088C163.07 74.3088 163.165 74.3145 163.215 74.326C163.269 74.3337 163.311 74.3432 163.341 74.3547C163.376 74.3662 163.397 74.3853 163.404 74.4121C163.416 74.4389 163.427 74.481 163.439 74.5384C163.45 74.5958 163.456 74.6953 163.456 74.8369C163.456 74.9746 163.45 75.0665 163.439 75.1124C163.427 75.1583 163.414 75.1985 163.399 75.233C163.387 75.2636 163.364 75.2884 163.33 75.3076C163.295 75.3229 163.255 75.3363 163.209 75.3478C163.163 75.3592 163.07 75.365 162.928 75.365C162.79 75.365 162.698 75.3612 162.652 75.3535C162.607 75.3459 162.553 75.3267 162.492 75.2961ZM162.48 76.513C162.446 76.4442 162.423 76.3848 162.411 76.3351C162.404 76.2853 162.4 76.1916 162.4 76.0538C162.4 75.9122 162.404 75.8166 162.411 75.7668C162.423 75.7171 162.432 75.6769 162.44 75.6463C162.452 75.6118 162.473 75.5889 162.503 75.5774C162.538 75.5621 162.58 75.5506 162.629 75.5429C162.683 75.5315 162.779 75.5257 162.916 75.5257C163.058 75.5257 163.154 75.5315 163.204 75.5429C163.257 75.5506 163.299 75.5602 163.33 75.5716C163.364 75.5831 163.385 75.6023 163.393 75.629C163.404 75.6558 163.416 75.6979 163.427 75.7553C163.439 75.8127 163.445 75.9122 163.445 76.0538C163.445 76.1916 163.439 76.2834 163.427 76.3294C163.416 76.3753 163.403 76.4155 163.387 76.4499C163.376 76.4805 163.353 76.5054 163.318 76.5245C163.284 76.5398 163.244 76.5532 163.198 76.5647C163.152 76.5762 163.058 76.5819 162.916 76.5819C162.779 76.5819 162.687 76.5781 162.641 76.5704C162.595 76.5628 162.541 76.5437 162.48 76.513ZM161.212 75.2157L161.189 74.9804V73.4133C161.193 73.2564 161.21 73.1626 161.24 73.132C161.275 73.1014 161.321 73.0823 161.378 73.0746C161.439 73.067 161.539 73.0631 161.677 73.0631C161.818 73.0631 161.916 73.0689 161.969 73.0804C162.027 73.088 162.073 73.1033 162.107 73.1263C162.142 73.1492 162.163 73.2296 162.17 73.3674V74.9632C162.163 75.1201 162.145 75.2177 162.119 75.2559C162.092 75.2904 162.046 75.3172 161.981 75.3363C161.92 75.3516 161.818 75.3592 161.677 75.3592C161.539 75.3592 161.439 75.3535 161.378 75.342C161.321 75.3267 161.265 75.2846 161.212 75.2157ZM158.185 81.0505C158.151 80.9816 158.128 80.9223 158.116 80.8725C158.109 80.8228 158.105 80.729 158.105 80.5912C158.105 80.4497 158.109 80.354 158.116 80.3042C158.128 80.2545 158.137 80.2143 158.145 80.1837C158.157 80.1492 158.178 80.1263 158.208 80.1148C158.243 80.0995 158.285 80.088 158.334 80.0804C158.388 80.0689 158.484 80.0631 158.621 80.0631C158.763 80.0631 158.859 80.0689 158.908 80.0804C158.962 80.088 159.004 80.0976 159.035 80.1091C159.069 80.1205 159.09 80.1397 159.098 80.1665C159.109 80.1933 159.121 80.2353 159.132 80.2928C159.144 80.3502 159.15 80.4497 159.15 80.5912C159.15 80.729 159.144 80.8209 159.132 80.8668C159.121 80.9127 159.107 80.9529 159.092 80.9873C159.081 81.0179 159.058 81.0428 159.023 81.0619C158.989 81.0773 158.949 81.0906 158.903 81.1021C158.857 81.1136 158.763 81.1194 158.621 81.1194C158.484 81.1194 158.392 81.1155 158.346 81.1079C158.3 81.1002 158.246 81.0811 158.185 81.0505Z" fill="#00A1F3"/>
<path d="M171.101 74.0505C171.066 73.9816 171.043 73.9223 171.032 73.8725C171.024 73.8228 171.02 73.729 171.02 73.5912C171.02 73.4497 171.024 73.354 171.032 73.3042C171.043 73.2545 171.053 73.2143 171.061 73.1837C171.072 73.1492 171.093 73.1263 171.124 73.1148C171.158 73.0995 171.2 73.088 171.25 73.0804C171.304 73.0689 171.399 73.0631 171.537 73.0631C171.679 73.0631 171.774 73.0689 171.824 73.0804C171.878 73.088 171.92 73.0976 171.95 73.1091C171.985 73.1205 172.006 73.1397 172.014 73.1665C172.025 73.1933 172.036 73.2353 172.048 73.2928C172.059 73.3502 172.065 73.4497 172.065 73.5912C172.065 73.729 172.059 73.8209 172.048 73.8668C172.036 73.9127 172.023 73.9529 172.008 73.9873C171.996 74.0179 171.973 74.0428 171.939 74.0619C171.904 74.0773 171.864 74.0906 171.818 74.1021C171.772 74.1136 171.679 74.1194 171.537 74.1194C171.399 74.1194 171.307 74.1155 171.262 74.1079C171.216 74.1002 171.162 74.0811 171.101 74.0505ZM172.341 74.0505C172.306 73.9816 172.283 73.9223 172.272 73.8725C172.264 73.8228 172.26 73.729 172.26 73.5912C172.26 73.4497 172.264 73.354 172.272 73.3042C172.283 73.2545 172.293 73.2143 172.301 73.1837C172.312 73.1492 172.333 73.1263 172.364 73.1148C172.398 73.0995 172.44 73.088 172.49 73.0804C172.544 73.0689 172.639 73.0631 172.777 73.0631C172.919 73.0631 173.014 73.0689 173.064 73.0804C173.118 73.088 173.16 73.0976 173.19 73.1091C173.225 73.1205 173.246 73.1397 173.253 73.1665C173.265 73.1933 173.276 73.2353 173.288 73.2928C173.299 73.3502 173.305 73.4497 173.305 73.5912C173.305 73.729 173.299 73.8209 173.288 73.8668C173.276 73.9127 173.263 73.9529 173.248 73.9873C173.236 74.0179 173.213 74.0428 173.179 74.0619C173.144 74.0773 173.104 74.0906 173.058 74.1021C173.012 74.1136 172.919 74.1194 172.777 74.1194C172.639 74.1194 172.547 74.1155 172.501 74.1079C172.456 74.1002 172.402 74.0811 172.341 74.0505ZM171.078 83.3982L171.049 83.0022V80.597C171.057 80.3674 171.072 80.2277 171.095 80.1779C171.118 80.1282 171.162 80.0976 171.227 80.0861C171.296 80.0708 171.399 80.0631 171.537 80.0631C171.679 80.0631 171.786 80.067 171.859 80.0746C171.935 80.0823 171.983 80.1129 172.002 80.1665C172.021 80.2162 172.031 80.3368 172.031 80.5281V82.9677C172.027 83.2432 172.012 83.4059 171.985 83.4556C171.962 83.5054 171.916 83.5398 171.847 83.559C171.782 83.5743 171.679 83.5819 171.537 83.5819C171.399 83.5819 171.296 83.5724 171.227 83.5532C171.158 83.5303 171.108 83.4786 171.078 83.3982ZM172.341 81.0505C172.306 80.9816 172.283 80.9223 172.272 80.8725C172.264 80.8228 172.26 80.729 172.26 80.5912C172.26 80.4497 172.264 80.354 172.272 80.3042C172.283 80.2545 172.293 80.2143 172.301 80.1837C172.312 80.1492 172.333 80.1263 172.364 80.1148C172.398 80.0995 172.44 80.088 172.49 80.0804C172.544 80.0689 172.639 80.0631 172.777 80.0631C172.919 80.0631 173.014 80.0689 173.064 80.0804C173.118 80.088 173.16 80.0976 173.19 80.1091C173.225 80.1205 173.246 80.1397 173.253 80.1665C173.265 80.1933 173.276 80.2353 173.288 80.2928C173.299 80.3502 173.305 80.4497 173.305 80.5912C173.305 80.729 173.299 80.8209 173.288 80.8668C173.276 80.9127 173.263 80.9529 173.248 80.9873C173.236 81.0179 173.213 81.0428 173.179 81.0619C173.144 81.0773 173.104 81.0906 173.058 81.1021C173.012 81.1136 172.919 81.1194 172.777 81.1194C172.639 81.1194 172.547 81.1155 172.501 81.1079C172.456 81.1002 172.402 81.0811 172.341 81.0505ZM172.352 82.2961C172.318 82.2272 172.295 82.1679 172.283 82.1182C172.276 82.0684 172.272 81.9746 172.272 81.8369C172.272 81.6953 172.276 81.5996 172.283 81.5499C172.295 81.5001 172.304 81.4599 172.312 81.4293C172.323 81.3949 172.345 81.3719 172.375 81.3604C172.41 81.3451 172.452 81.3337 172.501 81.326C172.555 81.3145 172.651 81.3088 172.788 81.3088C172.93 81.3088 173.026 81.3145 173.075 81.326C173.129 81.3337 173.171 81.3432 173.202 81.3547C173.236 81.3662 173.257 81.3853 173.265 81.4121C173.276 81.4389 173.288 81.481 173.299 81.5384C173.311 81.5958 173.317 81.6953 173.317 81.8369C173.317 81.9746 173.311 82.0665 173.299 82.1124C173.288 82.1583 173.274 82.1985 173.259 82.233C173.248 82.2636 173.225 82.2884 173.19 82.3076C173.156 82.3229 173.116 82.3363 173.07 82.3478C173.024 82.3592 172.93 82.365 172.788 82.365C172.651 82.365 172.559 82.3612 172.513 82.3535C172.467 82.3459 172.413 82.3267 172.352 82.2961ZM174.156 81.0505C174.121 80.9816 174.099 80.9223 174.087 80.8725C174.079 80.8228 174.076 80.729 174.076 80.5912C174.076 80.4497 174.079 80.354 174.087 80.3042C174.099 80.2545 174.108 80.2143 174.116 80.1837C174.127 80.1492 174.148 80.1263 174.179 80.1148C174.213 80.0995 174.255 80.088 174.305 80.0804C174.359 80.0689 174.454 80.0631 174.592 80.0631C174.734 80.0631 174.829 80.0689 174.879 80.0804C174.933 80.088 174.975 80.0976 175.005 80.1091C175.04 80.1205 175.061 80.1397 175.069 80.1665C175.08 80.1933 175.092 80.2353 175.103 80.2928C175.115 80.3502 175.12 80.4497 175.12 80.5912C175.12 80.729 175.115 80.8209 175.103 80.8668C175.092 80.9127 175.078 80.9529 175.063 80.9873C175.051 81.0179 175.028 81.0428 174.994 81.0619C174.96 81.0773 174.919 81.0906 174.873 81.1021C174.828 81.1136 174.734 81.1194 174.592 81.1194C174.454 81.1194 174.363 81.1155 174.317 81.1079C174.271 81.1002 174.217 81.0811 174.156 81.0505Z" fill="#00A1F3"/>
<path d="M172.042 180.985C172.042 180.687 172.283 180.446 172.58 180.446H177.334C177.631 180.446 177.872 180.687 177.872 180.985C177.872 181.282 177.631 181.523 177.334 181.523H172.58C172.283 181.523 172.042 181.282 172.042 180.985ZM174.957 177.218C175.439 177.218 175.851 177.06 176.193 176.744C176.535 176.428 176.706 176.048 176.706 175.603C176.706 175.158 176.535 174.778 176.193 174.462C175.851 174.146 175.439 173.989 174.957 173.989C174.475 173.989 174.063 174.146 173.721 174.462C173.535 174.634 173.4 174.824 173.315 175.034C173.194 175.332 172.947 175.603 172.625 175.603C172.303 175.603 172.034 175.339 172.104 175.025C172.216 174.526 172.479 174.086 172.893 173.703C173.465 173.176 174.153 172.912 174.957 172.912C175.762 172.912 176.448 173.176 177.015 173.703C177.586 174.227 177.872 174.86 177.872 175.603C177.872 176.346 177.586 176.981 177.015 177.508C176.448 178.032 175.762 178.294 174.957 178.294H173.746C173.449 178.294 173.208 178.053 173.208 177.756C173.208 177.458 173.449 177.218 173.746 177.218H174.957Z" fill="#00A1F3"/>
<path d="M179.913 172.912C180.396 172.912 180.787 173.304 180.787 173.787V180.155C180.787 180.316 180.918 180.446 181.079 180.446C181.24 180.446 181.37 180.577 181.37 180.738V180.985C181.37 181.282 181.129 181.523 180.832 181.523H179.576C179.279 181.523 179.038 181.282 179.038 180.985V180.738C179.038 180.577 179.169 180.446 179.33 180.446C179.491 180.446 179.621 180.316 179.621 180.155V174.28C179.621 174.119 179.491 173.989 179.33 173.989C179.169 173.989 179.038 173.858 179.038 173.697V173.45C179.038 173.153 179.279 172.912 179.576 172.912H179.913Z" fill="#00A1F3"/>
<path d="M186.617 180.446C187.422 180.446 188.108 180.133 188.675 179.505C189.246 178.873 189.532 178.111 189.532 177.218C189.532 176.324 189.246 175.564 188.675 174.936C188.108 174.304 187.422 173.989 186.617 173.989C185.813 173.989 185.125 174.304 184.553 174.936C183.986 175.564 183.702 176.324 183.702 177.218C183.702 178.111 183.986 178.873 184.553 179.505C185.125 180.133 185.813 180.446 186.617 180.446ZM186.617 172.912C187.744 172.912 188.706 173.334 189.503 174.177C190.3 175.017 190.698 176.03 190.698 177.218C190.698 178.405 190.3 179.42 189.503 180.263C188.706 181.103 187.744 181.523 186.617 181.523C185.49 181.523 184.528 181.103 183.731 180.263C182.934 179.42 182.536 178.405 182.536 177.218C182.536 176.03 182.934 175.017 183.731 174.177C184.528 173.334 185.49 172.912 186.617 172.912ZM186.034 177.218C186.034 176.92 186.275 176.679 186.572 176.679H186.662C186.959 176.679 187.2 176.92 187.2 177.218C187.2 177.515 186.959 177.756 186.662 177.756H186.572C186.275 177.756 186.034 177.515 186.034 177.218Z" fill="#00A1F3"/>
<path d="M99.8405 183.471L96.913 186.958H95.8977L98.0503 184.375V184.314H95.4671L96.0986 183.471H99.8405ZM100.576 187.467V188.271H100.041V190.958H99.3167V188.271H99.2163L97.939 190.958H97.0098L95.3344 187.467H96.2349L97.4834 189.964L98.6925 187.467H100.576ZM101.949 187.471L102.875 188.407H103.026L103.948 187.471H105.085L103.284 189.279V190.958H102.613V189.279L100.812 187.481L101.949 187.471Z" fill="#00A1F3"/>
<path d="M82.9649 278.375L87.2069 282.629V278.375H88.4009V283.955H86.7649L81.1796 278.375H82.9649ZM80.7147 281.303L85.0543 282.875L84.6697 283.955L80.3129 282.41L80.7147 281.303ZM85.7489 285.404V290.955H81.5241C80.8199 290.442 80.4449 289.611 80.399 288.463C80.4908 287.231 80.9462 286.213 81.7651 285.409H83.602V286.753H82.3277V286.454H82.121C81.8302 286.791 81.6848 287.461 81.6848 288.463C81.6695 289.206 81.7766 289.611 82.0062 289.68H84.4631V285.398L85.7489 285.404ZM86.5265 285.352V288.239H88.5528L91.4057 285.352H89.7812L87.8123 287.373V285.352H86.5265Z" fill="#00D5EE"/>
<path d="M98.8768 280.279C98.8252 280.175 98.7907 280.086 98.7735 280.012C98.762 279.937 98.7563 279.796 98.7563 279.59C98.7563 279.377 98.762 279.234 98.7735 279.159C98.7907 279.085 98.8051 279.024 98.8166 278.978C98.8338 278.927 98.8654 278.892 98.9113 278.875C98.963 278.852 99.0261 278.835 99.1007 278.823C99.1811 278.806 99.3246 278.798 99.5312 278.798C99.7436 278.798 99.8871 278.806 99.9618 278.823C100.042 278.835 100.105 278.849 100.151 278.867C100.203 278.884 100.234 278.912 100.246 278.953C100.263 278.993 100.28 279.056 100.298 279.142C100.315 279.228 100.323 279.377 100.323 279.59C100.323 279.796 100.315 279.934 100.298 280.003C100.28 280.072 100.26 280.132 100.237 280.184C100.22 280.23 100.186 280.267 100.134 280.296C100.082 280.319 100.022 280.339 99.9531 280.356C99.8843 280.373 99.7436 280.382 99.5312 280.382C99.3246 280.382 99.1868 280.376 99.1179 280.365C99.0491 280.353 98.9687 280.325 98.8768 280.279ZM100.737 280.279C100.685 280.175 100.651 280.086 100.633 280.012C100.622 279.937 100.616 279.796 100.616 279.59C100.616 279.377 100.622 279.234 100.633 279.159C100.651 279.085 100.665 279.024 100.676 278.978C100.694 278.927 100.725 278.892 100.771 278.875C100.823 278.852 100.886 278.835 100.961 278.823C101.041 278.806 101.184 278.798 101.391 278.798C101.603 278.798 101.747 278.806 101.822 278.823C101.902 278.835 101.965 278.849 102.011 278.867C102.063 278.884 102.094 278.912 102.106 278.953C102.123 278.993 102.14 279.056 102.157 279.142C102.175 279.228 102.183 279.377 102.183 279.59C102.183 279.796 102.175 279.934 102.157 280.003C102.14 280.072 102.12 280.132 102.097 280.184C102.08 280.23 102.045 280.267 101.994 280.296C101.942 280.319 101.882 280.339 101.813 280.356C101.744 280.373 101.603 280.382 101.391 280.382C101.184 280.382 101.047 280.376 100.978 280.365C100.909 280.353 100.829 280.325 100.737 280.279ZM103.46 280.279C103.408 280.175 103.373 280.086 103.356 280.012C103.345 279.937 103.339 279.796 103.339 279.59C103.339 279.377 103.345 279.234 103.356 279.159C103.373 279.085 103.388 279.024 103.399 278.978C103.416 278.927 103.448 278.892 103.494 278.875C103.546 278.852 103.609 278.835 103.683 278.823C103.764 278.806 103.907 278.798 104.114 278.798C104.326 278.798 104.47 278.806 104.544 278.823C104.625 278.835 104.688 278.849 104.734 278.867C104.786 278.884 104.817 278.912 104.829 278.953C104.846 278.993 104.863 279.056 104.88 279.142C104.897 279.228 104.906 279.377 104.906 279.59C104.906 279.796 104.897 279.934 104.88 280.003C104.863 280.072 104.843 280.132 104.82 280.184C104.803 280.23 104.768 280.267 104.717 280.296C104.665 280.319 104.605 280.339 104.536 280.356C104.467 280.373 104.326 280.382 104.114 280.382C103.907 280.382 103.769 280.376 103.701 280.365C103.632 280.353 103.551 280.325 103.46 280.279ZM105.319 280.279C105.268 280.175 105.233 280.086 105.216 280.012C105.205 279.937 105.199 279.796 105.199 279.59C105.199 279.377 105.205 279.234 105.216 279.159C105.233 279.085 105.248 279.024 105.259 278.978C105.276 278.927 105.308 278.892 105.354 278.875C105.405 278.852 105.469 278.835 105.543 278.823C105.624 278.806 105.767 278.798 105.974 278.798C106.186 278.798 106.33 278.806 106.404 278.823C106.485 278.835 106.548 278.849 106.594 278.867C106.645 278.884 106.677 278.912 106.688 278.953C106.706 278.993 106.723 279.056 106.74 279.142C106.757 279.228 106.766 279.377 106.766 279.59C106.766 279.796 106.757 279.934 106.74 280.003C106.723 280.072 106.703 280.132 106.68 280.184C106.663 280.23 106.628 280.267 106.576 280.296C106.525 280.319 106.465 280.339 106.396 280.356C106.327 280.373 106.186 280.382 105.974 280.382C105.767 280.382 105.629 280.376 105.56 280.365C105.492 280.353 105.411 280.325 105.319 280.279ZM105.337 282.147C105.285 282.044 105.25 281.955 105.233 281.88C105.222 281.806 105.216 281.665 105.216 281.458C105.216 281.246 105.222 281.102 105.233 281.028C105.25 280.953 105.265 280.893 105.276 280.847C105.294 280.795 105.325 280.761 105.371 280.744C105.423 280.721 105.486 280.703 105.56 280.692C105.641 280.675 105.784 280.666 105.991 280.666C106.203 280.666 106.347 280.675 106.421 280.692C106.502 280.703 106.565 280.718 106.611 280.735C106.663 280.752 106.694 280.781 106.706 280.821C106.723 280.861 106.74 280.924 106.757 281.011C106.775 281.097 106.783 281.246 106.783 281.458C106.783 281.665 106.775 281.803 106.757 281.872C106.74 281.94 106.72 282.001 106.697 282.052C106.68 282.098 106.645 282.136 106.594 282.164C106.542 282.187 106.482 282.207 106.413 282.225C106.344 282.242 106.203 282.25 105.991 282.25C105.784 282.25 105.647 282.245 105.578 282.233C105.509 282.222 105.428 282.193 105.337 282.147ZM98.8424 294.8L98.7994 294.206V290.598C98.8108 290.254 98.8338 290.044 98.8682 289.97C98.9027 289.895 98.9687 289.849 99.0663 289.832C99.1696 289.809 99.3246 289.798 99.5312 289.798C99.7436 289.798 99.9044 289.803 100.013 289.815C100.128 289.826 100.2 289.872 100.229 289.953C100.257 290.027 100.272 290.208 100.272 290.495V294.154C100.266 294.568 100.243 294.812 100.203 294.886C100.168 294.961 100.1 295.013 99.9962 295.041C99.8986 295.064 99.7436 295.076 99.5312 295.076C99.3246 295.076 99.1696 295.061 99.0663 295.033C98.9629 294.998 98.8883 294.921 98.8424 294.8ZM100.737 291.279C100.685 291.175 100.651 291.086 100.633 291.012C100.622 290.937 100.616 290.796 100.616 290.59C100.616 290.377 100.622 290.234 100.633 290.159C100.651 290.085 100.665 290.024 100.676 289.978C100.694 289.927 100.725 289.892 100.771 289.875C100.823 289.852 100.886 289.835 100.961 289.823C101.041 289.806 101.184 289.798 101.391 289.798C101.603 289.798 101.747 289.806 101.822 289.823C101.902 289.835 101.965 289.849 102.011 289.867C102.063 289.884 102.094 289.912 102.106 289.953C102.123 289.993 102.14 290.056 102.157 290.142C102.175 290.228 102.183 290.377 102.183 290.59C102.183 290.796 102.175 290.934 102.157 291.003C102.14 291.072 102.12 291.132 102.097 291.184C102.08 291.23 102.045 291.267 101.994 291.296C101.942 291.319 101.882 291.339 101.813 291.356C101.744 291.373 101.603 291.382 101.391 291.382C101.184 291.382 101.047 291.376 100.978 291.365C100.909 291.353 100.829 291.325 100.737 291.279Z" fill="#00A1F3"/>
<path d="M137.342 97.3667L137.471 97.4958V98.7551H136.668V98.0914H133.722V100.05H136.194L135.129 100.854H133.22L132.958 100.592V97.5066L133.098 97.3667H137.342ZM134.265 101.367L135.452 104.14L134.979 104.854H131.151L130.659 104.129L131.804 101.367H134.265ZM131.492 104.09H134.616L133.806 102.17H132.295L131.492 104.09ZM136.596 104.857V103.498H137.263V102.73H136.596V101.381H135.857V104.857H136.596Z" fill="#00A1F3"/>
<path d="M144.288 97.381L145.963 100.857H140.543V100.047H144.74L143.829 98.1811H140.543V97.381H144.288ZM140.629 101.367H141.439V102.052H143.631L144.751 101.367H146.38L143.631 102.859H140.629V101.367ZM140.629 103.361H143.721L146.416 104.854H144.891L143.571 104.169H141.429V104.854H140.629V103.361ZM147.401 104.857V103.498H146.733V102.73H147.401V101.381H148.14V104.857H147.401Z" fill="#00A1F3"/>
<path d="M124.843 220.772L124.832 220.833L122.956 224.269H119.899V220.772H120.556V223.462H122.568L123.573 221.518V221.496H121.894V221.708H121.227V220.772H124.843ZM119.949 224.768V226.573H121.216L122.999 224.768H121.984L120.753 226.031V224.768H119.949Z" fill="#00A1F3"/>
<path d="M155.421 220.8V224.269H152.78C152.34 223.949 152.106 223.43 152.077 222.712C152.134 221.942 152.419 221.306 152.931 220.804H154.079V221.643H153.282V221.457H153.153C152.971 221.667 152.88 222.086 152.88 222.712C152.871 223.176 152.938 223.43 153.081 223.473H154.617V220.797L155.421 220.8ZM156.689 224.273V222.913H157.356V222.146H156.689V220.797H155.95V224.273H156.689ZM153.681 224.782L156.332 227.441V224.782H157.078V228.269H156.056L152.565 224.782H153.681ZM152.274 226.612L154.986 227.595L154.746 228.269L152.023 227.304L152.274 226.612Z" fill="#00A1F3"/>
<path d="M175.099 183.489V184.324C175.549 184.25 175.907 184.164 176.175 184.066C176.443 183.968 176.831 183.76 177.338 183.442V184.159C176.936 184.427 176.578 184.626 176.265 184.755C175.952 184.882 175.563 184.993 175.099 185.089V186.158H177.338V186.958H172.186V184.558L173.126 184.554C173.551 184.535 173.963 184.492 174.36 184.425L174.363 183.489H175.099ZM172.979 186.158H174.363V185.257C174.041 185.3 173.704 185.327 173.355 185.336H172.975L172.979 186.158ZM176.581 187.485V190.961H172.351L172.171 190.782V189.821H173.101V190.151H175.777V188.949H174.112L173.581 189.49H172.369L173.703 188.156H175.777V187.485H176.581ZM179.888 187.471V188.407L179.142 188.414L178.148 190.154H180.129L179.644 190.958H176.792L178.712 187.471H179.888Z" fill="#00A1F3"/>
<g filter="url(#filter4_dd_41_1454)">
<path d="M80.442 256.146C81.3693 256.146 82.1211 256.898 82.1211 257.825V271.91C82.1211 272.219 82.3716 272.47 82.6807 272.47C82.9898 272.47 83.2404 272.721 83.2404 273.03V273.636C83.2404 274.28 82.7184 274.802 82.0744 274.802H79.929C79.285 274.802 78.763 274.28 78.763 273.636V273.03C78.763 272.721 79.0136 272.47 79.3227 272.47C79.6318 272.47 79.8824 272.219 79.8824 271.91V259.038C79.8824 258.729 79.6318 258.478 79.3227 258.478C79.0136 258.478 78.763 258.228 78.763 257.918V257.312C78.763 256.668 79.285 256.146 79.929 256.146H80.442Z" fill="#00D5EE"/>
<path d="M85.4791 273.636C85.4791 272.992 86.0011 272.47 86.6451 272.47H95.5066C96.1506 272.47 96.6726 272.992 96.6726 273.636C96.6726 274.28 96.1506 274.802 95.5066 274.802H86.6451C86.0011 274.802 85.4791 274.28 85.4791 273.636ZM91.0759 265.474C92.0012 265.474 92.7922 265.132 93.4489 264.448C94.1056 263.764 94.4339 262.94 94.4339 261.976C94.4339 261.012 94.1056 260.188 93.4489 259.504C92.7922 258.82 92.0012 258.478 91.0759 258.478C90.1505 258.478 89.3595 258.82 88.7028 259.504C88.3124 259.911 88.038 260.367 87.8797 260.873C87.695 261.463 87.2167 261.976 86.5985 261.976C85.9803 261.976 85.4665 261.471 85.5726 260.862C85.7709 259.724 86.2845 258.723 87.1134 257.86C88.2103 256.717 89.5312 256.146 91.0759 256.146C92.6206 256.146 93.9377 256.717 95.0272 257.86C96.1241 258.995 96.6726 260.367 96.6726 261.976C96.6726 263.585 96.1241 264.961 95.0272 266.104C93.9377 267.239 92.6206 267.806 91.0759 267.806H88.8838C88.2398 267.806 87.7178 267.284 87.7178 266.64C87.7178 265.996 88.2398 265.474 88.8838 265.474H91.0759Z" fill="#00D5EE"/>
<path d="M102.829 256.146C104.993 256.146 106.747 257.9 106.747 260.064V273.683C106.747 274.301 106.246 274.802 105.627 274.802C105.009 274.802 104.508 274.301 104.508 273.683V261.276C104.508 259.731 103.255 258.478 101.71 258.478H100.077C99.4333 258.478 98.9113 257.956 98.9113 257.312C98.9113 256.668 99.4333 256.146 100.077 256.146H102.829Z" fill="#00D5EE"/>
</g>
<path d="M201.08 256.252H189.265H177.449C157.361 256.252 137.916 265.469 122.769 282.196" stroke="#00B5F0" stroke-width="0.717532" stroke-linecap="round" stroke-linejoin="round" stroke-dasharray="11.48 2.87"/>
<mask id="mask0_41_1454" style="mask-type:alpha" maskUnits="userSpaceOnUse" x="125" y="258" width="77" height="25">
<path d="M125.652 282.676C140.19 267.34 160.393 258.654 181.525 258.654H201.561V282.676H125.652Z" fill="white"/>
</mask>
<g mask="url(#mask0_41_1454)">
<path d="M125.434 258.654H201.561V266.341H125.434V258.654Z" fill="#005383"/>
<path d="M125.434 267.302H201.561V268.263H125.434V267.302Z" fill="#0094B0"/>
<path d="M125.434 269.224H201.561V273.067H125.434V269.224Z" fill="#BDF1FB"/>
<path d="M125.434 274.028H201.561V276.911H125.434V274.028Z" fill="#008EE1"/>
<path d="M125.434 277.872H201.561V278.833H125.434V277.872Z" fill="#00B3E6"/>
<path d="M125.434 279.794H201.561V280.754H125.434V279.794Z" fill="#0064A8"/>
<path d="M125.434 281.715H201.561V282.676H125.434V281.715Z" fill="#0064A8"/>
</g>
<path d="M147.752 282.676C157.004 268.302 172.927 259.615 190.021 259.615H201.561V282.676H147.752Z" fill="#021414"/>
<path d="M171.376 274.907C171.376 274.596 171.631 274.351 171.934 274.283C172.475 274.16 172.952 273.852 173.363 273.358C173.915 272.698 174.191 271.9 174.191 270.966C174.191 270.031 173.915 269.235 173.363 268.578C172.952 268.082 172.475 267.772 171.934 267.649C171.631 267.58 171.376 267.335 171.376 267.024C171.376 266.714 171.63 266.456 171.937 266.503C172.787 266.631 173.529 267.058 174.163 267.785C174.932 268.663 175.317 269.723 175.317 270.966C175.317 272.208 174.932 273.27 174.163 274.152C173.529 274.876 172.787 275.301 171.937 275.429C171.63 275.475 171.376 275.218 171.376 274.907ZM171.376 270.966C171.376 270.655 171.628 270.403 171.939 270.403H173.065C173.376 270.403 173.628 270.655 173.628 270.966C173.628 271.277 173.376 271.529 173.065 271.529H171.939C171.628 271.529 171.376 271.277 171.376 270.966Z" fill="#00A1F3"/>
<path d="M182.355 266.461C182.821 266.461 183.199 266.84 183.199 267.306V274.062C183.199 274.218 183.325 274.344 183.481 274.344C183.636 274.344 183.762 274.47 183.762 274.625V274.907C183.762 275.218 183.51 275.47 183.199 275.47H182.073C181.762 275.47 181.51 275.218 181.51 274.907V274.625C181.51 274.47 181.636 274.344 181.792 274.344C181.947 274.344 182.073 274.218 182.073 274.062V267.869C182.073 267.714 181.947 267.588 181.792 267.588C181.636 267.588 181.51 267.461 181.51 267.306V267.024C181.51 266.714 181.762 266.461 182.073 266.461H182.355Z" fill="#00A1F3"/>
<path d="M184.888 270.403C184.888 270.092 185.14 269.84 185.451 269.84H188.266C188.577 269.84 188.829 270.092 188.829 270.403C188.829 270.713 188.577 270.966 188.266 270.966H185.451C185.14 270.966 184.888 270.713 184.888 270.403Z" fill="#00A1F3"/>
<path d="M192.77 274.344C193.236 274.344 193.634 274.178 193.964 273.848C194.294 273.518 194.459 273.12 194.459 272.655C194.459 272.189 194.294 271.791 193.964 271.461C193.634 271.131 193.236 270.966 192.77 270.966C192.305 270.966 191.907 271.131 191.577 271.461C191.246 271.791 191.081 272.189 191.081 272.655C191.081 273.12 191.246 273.518 191.577 273.848C191.907 274.178 192.305 274.344 192.77 274.344ZM192.77 269.84C193.082 269.84 193.346 269.731 193.564 269.513C193.786 269.292 193.896 269.025 193.896 268.714C193.896 268.402 193.786 268.137 193.564 267.92C193.346 267.698 193.082 267.588 192.77 267.588C192.459 267.588 192.192 267.698 191.971 267.92C191.753 268.137 191.644 268.402 191.644 268.714C191.644 269.025 191.753 269.292 191.971 269.513C192.192 269.731 192.459 269.84 192.77 269.84ZM194.364 270.307C194.358 270.313 194.359 270.322 194.365 270.327C194.503 270.426 194.636 270.538 194.763 270.662C195.311 271.213 195.585 271.878 195.585 272.655C195.585 273.432 195.309 274.096 194.758 274.648C194.21 275.196 193.547 275.47 192.77 275.47C191.993 275.47 191.329 275.196 190.777 274.648C190.229 274.096 189.955 273.432 189.955 272.655C189.955 271.878 190.231 271.213 190.783 270.662C190.907 270.538 191.037 270.426 191.175 270.327C191.182 270.322 191.183 270.313 191.177 270.307C190.738 269.868 190.518 269.337 190.518 268.714C190.518 268.09 190.738 267.559 191.177 267.12C191.616 266.681 192.147 266.461 192.77 266.461C193.393 266.461 193.924 266.681 194.364 267.12C194.803 267.559 195.022 268.09 195.022 268.714C195.022 269.337 194.803 269.868 194.364 270.307Z" fill="#00A1F3"/>
<path d="M196.711 274.907C196.711 274.596 196.967 274.351 197.27 274.283C197.811 274.16 198.287 273.852 198.699 273.358C199.251 272.698 199.526 271.9 199.526 270.966C199.526 270.031 199.251 269.235 198.699 268.578C198.287 268.082 197.811 267.772 197.27 267.649C196.967 267.58 196.711 267.335 196.711 267.024C196.711 266.714 196.965 266.456 197.272 266.503C198.123 266.631 198.865 267.058 199.498 267.785C200.268 268.663 200.652 269.723 200.652 270.966C200.652 272.208 200.268 273.27 199.498 274.152C198.865 274.876 198.123 275.301 197.272 275.429C196.965 275.475 196.711 275.218 196.711 274.907ZM196.711 270.966C196.711 270.655 196.963 270.403 197.274 270.403H198.4C198.711 270.403 198.963 270.655 198.963 270.966C198.963 271.277 198.711 271.529 198.4 271.529H197.274C196.963 271.529 196.711 271.277 196.711 270.966Z" fill="#00A1F3"/>
<path d="M173.413 283.916C173.362 283.813 173.327 283.724 173.31 283.649C173.298 283.575 173.293 283.434 173.293 283.228C173.293 283.015 173.298 282.872 173.31 282.797C173.327 282.722 173.341 282.662 173.353 282.616C173.37 282.565 173.402 282.53 173.448 282.513C173.499 282.49 173.562 282.473 173.637 282.461C173.717 282.444 173.861 282.435 174.068 282.435C174.28 282.435 174.424 282.444 174.498 282.461C174.579 282.473 174.642 282.487 174.688 282.504C174.739 282.522 174.771 282.55 174.782 282.59C174.8 282.631 174.817 282.694 174.834 282.78C174.851 282.866 174.86 283.015 174.86 283.228C174.86 283.434 174.851 283.572 174.834 283.641C174.817 283.71 174.797 283.77 174.774 283.822C174.756 283.868 174.722 283.905 174.67 283.934C174.619 283.957 174.558 283.977 174.49 283.994C174.421 284.011 174.28 284.02 174.068 284.02C173.861 284.02 173.723 284.014 173.654 284.003C173.585 283.991 173.505 283.962 173.413 283.916ZM171.553 280.223C171.502 280.119 171.467 280.03 171.45 279.956C171.439 279.881 171.433 279.74 171.433 279.534C171.433 279.321 171.439 279.178 171.45 279.103C171.467 279.029 171.482 278.968 171.493 278.922C171.51 278.871 171.542 278.836 171.588 278.819C171.64 278.796 171.703 278.779 171.777 278.767C171.858 278.75 172.001 278.742 172.208 278.742C172.42 278.742 172.564 278.75 172.638 278.767C172.719 278.779 172.782 278.793 172.828 278.81C172.879 278.828 172.911 278.856 172.922 278.897C172.94 278.937 172.957 279 172.974 279.086C172.991 279.172 173 279.321 173 279.534C173 279.74 172.991 279.878 172.974 279.947C172.957 280.016 172.937 280.076 172.914 280.128C172.897 280.174 172.862 280.211 172.811 280.24C172.759 280.263 172.699 280.283 172.63 280.3C172.561 280.317 172.42 280.326 172.208 280.326C172.001 280.326 171.863 280.32 171.794 280.309C171.726 280.297 171.645 280.268 171.553 280.223ZM173.413 280.223C173.362 280.119 173.327 280.03 173.31 279.956C173.298 279.881 173.293 279.74 173.293 279.534C173.293 279.321 173.298 279.178 173.31 279.103C173.327 279.029 173.341 278.968 173.353 278.922C173.37 278.871 173.402 278.836 173.448 278.819C173.499 278.796 173.562 278.779 173.637 278.767C173.717 278.75 173.861 278.742 174.068 278.742C174.28 278.742 174.424 278.75 174.498 278.767C174.579 278.779 174.642 278.793 174.688 278.81C174.739 278.828 174.771 278.856 174.782 278.897C174.8 278.937 174.817 279 174.834 279.086C174.851 279.172 174.86 279.321 174.86 279.534C174.86 279.74 174.851 279.878 174.834 279.947C174.817 280.016 174.797 280.076 174.774 280.128C174.756 280.174 174.722 280.211 174.67 280.24C174.619 280.263 174.558 280.283 174.49 280.3C174.421 280.317 174.28 280.326 174.068 280.326C173.861 280.326 173.723 280.32 173.654 280.309C173.585 280.297 173.505 280.268 173.413 280.223ZM173.43 282.091C173.379 281.988 173.344 281.899 173.327 281.824C173.316 281.749 173.31 281.609 173.31 281.402C173.31 281.19 173.316 281.046 173.327 280.972C173.344 280.897 173.359 280.837 173.37 280.791C173.387 280.739 173.419 280.705 173.465 280.688C173.517 280.665 173.58 280.647 173.654 280.636C173.735 280.619 173.878 280.61 174.085 280.61C174.297 280.61 174.441 280.619 174.515 280.636C174.596 280.647 174.659 280.662 174.705 280.679C174.756 280.696 174.788 280.725 174.8 280.765C174.817 280.805 174.834 280.868 174.851 280.954C174.868 281.041 174.877 281.19 174.877 281.402C174.877 281.609 174.868 281.747 174.851 281.815C174.834 281.884 174.814 281.945 174.791 281.996C174.774 282.042 174.739 282.08 174.688 282.108C174.636 282.131 174.576 282.151 174.507 282.168C174.438 282.186 174.297 282.194 174.085 282.194C173.878 282.194 173.74 282.189 173.672 282.177C173.603 282.166 173.522 282.137 173.43 282.091ZM176.136 280.223C176.084 280.119 176.05 280.03 176.033 279.956C176.021 279.881 176.016 279.74 176.016 279.534C176.016 279.321 176.021 279.178 176.033 279.103C176.05 279.029 176.064 278.968 176.076 278.922C176.093 278.871 176.125 278.836 176.171 278.819C176.222 278.796 176.285 278.779 176.36 278.767C176.44 278.75 176.584 278.742 176.79 278.742C177.003 278.742 177.146 278.75 177.221 278.767C177.301 278.779 177.364 278.793 177.41 278.81C177.462 278.828 177.494 278.856 177.505 278.897C177.522 278.937 177.54 279 177.557 279.086C177.574 279.172 177.583 279.321 177.583 279.534C177.583 279.74 177.574 279.878 177.557 279.947C177.54 280.016 177.519 280.076 177.497 280.128C177.479 280.174 177.445 280.211 177.393 280.24C177.342 280.263 177.281 280.283 177.212 280.3C177.143 280.317 177.003 280.326 176.79 280.326C176.584 280.326 176.446 280.32 176.377 280.309C176.308 280.297 176.228 280.268 176.136 280.223ZM177.996 280.223C177.944 280.119 177.91 280.03 177.893 279.956C177.881 279.881 177.875 279.74 177.875 279.534C177.875 279.321 177.881 279.178 177.893 279.103C177.91 279.029 177.924 278.968 177.936 278.922C177.953 278.871 177.984 278.836 178.03 278.819C178.082 278.796 178.145 278.779 178.22 278.767C178.3 278.75 178.444 278.742 178.65 278.742C178.863 278.742 179.006 278.75 179.081 278.767C179.161 278.779 179.224 278.793 179.27 278.81C179.322 278.828 179.353 278.856 179.365 278.897C179.382 278.937 179.399 279 179.417 279.086C179.434 279.172 179.442 279.321 179.442 279.534C179.442 279.74 179.434 279.878 179.417 279.947C179.399 280.016 179.379 280.076 179.356 280.128C179.339 280.174 179.305 280.211 179.253 280.24C179.201 280.263 179.141 280.283 179.072 280.3C179.003 280.317 178.863 280.326 178.65 280.326C178.444 280.326 178.306 280.32 178.237 280.309C178.168 280.297 178.088 280.268 177.996 280.223ZM180.641 280.886C180.641 280.627 180.681 280.421 180.762 280.266C180.848 280.105 180.963 279.99 181.106 279.921C181.255 279.852 181.419 279.818 181.597 279.818C181.775 279.818 181.936 279.852 182.079 279.921C182.223 279.99 182.338 280.105 182.424 280.266C182.51 280.421 182.553 280.627 182.553 280.886C182.553 281.138 182.51 281.345 182.424 281.505C182.338 281.66 182.223 281.775 182.079 281.85C181.936 281.919 181.775 281.953 181.597 281.953C181.419 281.953 181.255 281.919 181.106 281.85C180.963 281.775 180.848 281.66 180.762 281.505C180.681 281.345 180.641 281.138 180.641 280.886ZM171.519 294.744L171.476 294.15V290.542C171.487 290.198 171.51 289.988 171.545 289.914C171.579 289.839 171.645 289.793 171.743 289.776C171.846 289.753 172.001 289.742 172.208 289.742C172.42 289.742 172.581 289.747 172.69 289.759C172.805 289.77 172.877 289.816 172.905 289.897C172.934 289.971 172.948 290.152 172.948 290.439V294.098C172.943 294.512 172.92 294.756 172.879 294.83C172.845 294.905 172.776 294.957 172.673 294.985C172.575 295.008 172.42 295.02 172.208 295.02C172.001 295.02 171.846 295.005 171.743 294.977C171.64 294.942 171.565 294.865 171.519 294.744ZM173.413 291.223C173.362 291.119 173.327 291.03 173.31 290.956C173.298 290.881 173.293 290.74 173.293 290.534C173.293 290.321 173.298 290.178 173.31 290.103C173.327 290.029 173.341 289.968 173.353 289.922C173.37 289.871 173.402 289.836 173.448 289.819C173.499 289.796 173.562 289.779 173.637 289.767C173.717 289.75 173.861 289.742 174.068 289.742C174.28 289.742 174.424 289.75 174.498 289.767C174.579 289.779 174.642 289.793 174.688 289.81C174.739 289.828 174.771 289.856 174.782 289.897C174.8 289.937 174.817 290 174.834 290.086C174.851 290.172 174.86 290.321 174.86 290.534C174.86 290.74 174.851 290.878 174.834 290.947C174.817 291.016 174.797 291.076 174.774 291.128C174.756 291.174 174.722 291.211 174.67 291.24C174.619 291.263 174.558 291.283 174.49 291.3C174.421 291.317 174.28 291.326 174.068 291.326C173.861 291.326 173.723 291.32 173.654 291.309C173.585 291.297 173.505 291.268 173.413 291.223ZM173.43 293.091C173.379 292.988 173.344 292.899 173.327 292.824C173.316 292.749 173.31 292.609 173.31 292.402C173.31 292.19 173.316 292.046 173.327 291.972C173.344 291.897 173.359 291.837 173.37 291.791C173.387 291.739 173.419 291.705 173.465 291.688C173.517 291.665 173.58 291.647 173.654 291.636C173.735 291.619 173.878 291.61 174.085 291.61C174.297 291.61 174.441 291.619 174.515 291.636C174.596 291.647 174.659 291.662 174.705 291.679C174.756 291.696 174.788 291.725 174.8 291.765C174.817 291.805 174.834 291.868 174.851 291.954C174.868 292.041 174.877 292.19 174.877 292.402C174.877 292.609 174.868 292.747 174.851 292.815C174.834 292.884 174.814 292.945 174.791 292.996C174.774 293.042 174.739 293.08 174.688 293.108C174.636 293.131 174.576 293.151 174.507 293.168C174.438 293.186 174.297 293.194 174.085 293.194C173.878 293.194 173.74 293.189 173.672 293.177C173.603 293.166 173.522 293.137 173.43 293.091ZM177.996 294.916C177.944 294.813 177.91 294.724 177.893 294.649C177.881 294.575 177.875 294.434 177.875 294.228C177.875 294.015 177.881 293.872 177.893 293.797C177.91 293.722 177.924 293.662 177.936 293.616C177.953 293.565 177.984 293.53 178.03 293.513C178.082 293.49 178.145 293.473 178.22 293.461C178.3 293.444 178.444 293.435 178.65 293.435C178.863 293.435 179.006 293.444 179.081 293.461C179.161 293.473 179.224 293.487 179.27 293.504C179.322 293.522 179.353 293.55 179.365 293.59C179.382 293.631 179.399 293.694 179.417 293.78C179.434 293.866 179.442 294.015 179.442 294.228C179.442 294.434 179.434 294.572 179.417 294.641C179.399 294.71 179.379 294.77 179.356 294.822C179.339 294.868 179.305 294.905 179.253 294.934C179.201 294.957 179.141 294.977 179.072 294.994C179.003 295.011 178.863 295.02 178.65 295.02C178.444 295.02 178.306 295.014 178.237 295.003C178.168 294.991 178.088 294.962 177.996 294.916ZM176.136 291.223C176.084 291.119 176.05 291.03 176.033 290.956C176.021 290.881 176.016 290.74 176.016 290.534C176.016 290.321 176.021 290.178 176.033 290.103C176.05 290.029 176.064 289.968 176.076 289.922C176.093 289.871 176.125 289.836 176.171 289.819C176.222 289.796 176.285 289.779 176.36 289.767C176.44 289.75 176.584 289.742 176.79 289.742C177.003 289.742 177.146 289.75 177.221 289.767C177.301 289.779 177.364 289.793 177.41 289.81C177.462 289.828 177.494 289.856 177.505 289.897C177.522 289.937 177.54 290 177.557 290.086C177.574 290.172 177.583 290.321 177.583 290.534C177.583 290.74 177.574 290.878 177.557 290.947C177.54 291.016 177.519 291.076 177.497 291.128C177.479 291.174 177.445 291.211 177.393 291.24C177.342 291.263 177.281 291.283 177.212 291.3C177.143 291.317 177.003 291.326 176.79 291.326C176.584 291.326 176.446 291.32 176.377 291.309C176.308 291.297 176.228 291.268 176.136 291.223ZM177.996 291.223C177.944 291.119 177.91 291.03 177.893 290.956C177.881 290.881 177.875 290.74 177.875 290.534C177.875 290.321 177.881 290.178 177.893 290.103C177.91 290.029 177.924 289.968 177.936 289.922C177.953 289.871 177.984 289.836 178.03 289.819C178.082 289.796 178.145 289.779 178.22 289.767C178.3 289.75 178.444 289.742 178.65 289.742C178.863 289.742 179.006 289.75 179.081 289.767C179.161 289.779 179.224 289.793 179.27 289.81C179.322 289.828 179.353 289.856 179.365 289.897C179.382 289.937 179.399 290 179.417 290.086C179.434 290.172 179.442 290.321 179.442 290.534C179.442 290.74 179.434 290.878 179.417 290.947C179.399 291.016 179.379 291.076 179.356 291.128C179.339 291.174 179.305 291.211 179.253 291.24C179.201 291.263 179.141 291.283 179.072 291.3C179.003 291.317 178.863 291.326 178.65 291.326C178.444 291.326 178.306 291.32 178.237 291.309C178.168 291.297 178.088 291.268 177.996 291.223ZM178.013 293.091C177.961 292.988 177.927 292.899 177.91 292.824C177.898 292.749 177.893 292.609 177.893 292.402C177.893 292.19 177.898 292.046 177.91 291.972C177.927 291.897 177.941 291.837 177.953 291.791C177.97 291.739 178.002 291.705 178.048 291.688C178.099 291.665 178.162 291.647 178.237 291.636C178.317 291.619 178.461 291.61 178.668 291.61C178.88 291.61 179.023 291.619 179.098 291.636C179.178 291.647 179.242 291.662 179.287 291.679C179.339 291.696 179.371 291.725 179.382 291.765C179.399 291.805 179.417 291.868 179.434 291.954C179.451 292.041 179.46 292.19 179.46 292.402C179.46 292.609 179.451 292.747 179.434 292.815C179.417 292.884 179.397 292.945 179.374 292.996C179.356 293.042 179.322 293.08 179.27 293.108C179.219 293.131 179.158 293.151 179.089 293.168C179.021 293.186 178.88 293.194 178.668 293.194C178.461 293.194 178.323 293.189 178.254 293.177C178.185 293.166 178.105 293.137 178.013 293.091Z" fill="#00A1F3"/>
<rect x="195.796" y="252.889" width="0.96087" height="0.96087" rx="0.480435" fill="#00B5F0"/>
<rect x="184.265" y="252.889" width="0.96087" height="0.96087" rx="0.480435" fill="#00B5F0"/>
<rect x="172.254" y="252.889" width="0.96087" height="0.96087" rx="0.480435" fill="#00B5F0"/>
<rect x="162.165" y="254.33" width="0.96087" height="0.96087" rx="0.480435" fill="#00B5F0"/>
<rect x="151.115" y="257.694" width="0.96087" height="0.96087" rx="0.480435" fill="#00B5F0"/>
<rect x="141.987" y="262.017" width="0.96087" height="0.96087" rx="0.480435" fill="#00B5F0"/>
<rect x="132.859" y="267.783" width="0.96087" height="0.96087" rx="0.480435" fill="#00B5F0"/>
<rect x="124.691" y="274.509" width="0.96087" height="0.96087" rx="0.480435" fill="#00B5F0"/>
<rect x="119.887" y="279.794" width="0.96087" height="0.96087" rx="0.480435" fill="#00B5F0"/>
<defs>
<filter id="filter0_f_41_1454" x="0.0902328" y="0.116886" width="278.028" height="297.141" filterUnits="userSpaceOnUse" color-interpolation-filters="sRGB">
<feFlood flood-opacity="0" result="BackgroundImageFix"/>
<feBlend mode="normal" in="SourceGraphic" in2="BackgroundImageFix" result="shape"/>
<feGaussianBlur stdDeviation="35.8766" result="effect1_foregroundBlur_41_1454"/>
</filter>
<filter id="filter1_d_41_1454" x="81.6331" y="187.981" width="45.9221" height="38.7471" filterUnits="userSpaceOnUse" color-interpolation-filters="sRGB">
<feFlood flood-opacity="0" result="BackgroundImageFix"/>
<feColorMatrix in="SourceAlpha" type="matrix" values="0 0 0 0 0 0 0 0 0 0 0 0 0 0 0 0 0 0 127 0" result="hardAlpha"/>
<feOffset dy="2.87013"/>
<feGaussianBlur stdDeviation="2.87013"/>
<feColorMatrix type="matrix" values="0 0 0 0 0 0 0 0 0 0 0 0 0 0 0 0 0 0 0.85 0"/>
<feBlend mode="normal" in2="BackgroundImageFix" result="effect1_dropShadow_41_1454"/>
<feBlend mode="normal" in="SourceGraphic" in2="effect1_dropShadow_41_1454" result="shape"/>
</filter>
<filter id="filter2_d_41_1454" x="150.516" y="187.981" width="45.9221" height="38.7471" filterUnits="userSpaceOnUse" color-interpolation-filters="sRGB">
<feFlood flood-opacity="0" result="BackgroundImageFix"/>
<feColorMatrix in="SourceAlpha" type="matrix" values="0 0 0 0 0 0 0 0 0 0 0 0 0 0 0 0 0 0 127 0" result="hardAlpha"/>
<feOffset dy="2.87013"/>
<feGaussianBlur stdDeviation="2.87013"/>
<feColorMatrix type="matrix" values="0 0 0 0 0 0 0 0 0 0 0 0 0 0 0 0 0 0 0.85 0"/>
<feBlend mode="normal" in2="BackgroundImageFix" result="effect1_dropShadow_41_1454"/>
<feBlend mode="normal" in="SourceGraphic" in2="effect1_dropShadow_41_1454" result="shape"/>
</filter>
<filter id="filter3_ddd_41_1454" x="113.205" y="64.5649" width="31.5714" height="39.4643" filterUnits="userSpaceOnUse" color-interpolation-filters="sRGB">
<feFlood flood-opacity="0" result="BackgroundImageFix"/>
<feColorMatrix in="SourceAlpha" type="matrix" values="0 0 0 0 0 0 0 0 0 0 0 0 0 0 0 0 0 0 127 0" result="hardAlpha"/>
<feOffset/>
<feGaussianBlur stdDeviation="7.17532"/>
<feColorMatrix type="matrix" values="0 0 0 0 0.364706 0 0 0 0 0.866667 0 0 0 0 0.980392 0 0 0 1 0"/>
<feBlend mode="normal" in2="BackgroundImageFix" result="effect1_dropShadow_41_1454"/>
<feColorMatrix in="SourceAlpha" type="matrix" values="0 0 0 0 0 0 0 0 0 0 0 0 0 0 0 0 0 0 127 0" result="hardAlpha"/>
<feOffset/>
<feGaussianBlur stdDeviation="0.358766"/>
<feColorMatrix type="matrix" values="0 0 0 0 0.364706 0 0 0 0 0.866667 0 0 0 0 0.980392 0 0 0 1 0"/>
<feBlend mode="normal" in2="effect1_dropShadow_41_1454" result="effect2_dropShadow_41_1454"/>
<feColorMatrix in="SourceAlpha" type="matrix" values="0 0 0 0 0 0 0 0 0 0 0 0 0 0 0 0 0 0 127 0" result="hardAlpha"/>
<feOffset/>
<feGaussianBlur stdDeviation="2.1526"/>
<feColorMatrix type="matrix" values="0 0 0 0 0.0509804 0 0 0 0 0.364706 0 0 0 0 0.556863 0 0 0 1 0"/>
<feBlend mode="normal" in2="effect2_dropShadow_41_1454" result="effect3_dropShadow_41_1454"/>
<feBlend mode="normal" in="SourceGraphic" in2="effect3_dropShadow_41_1454" result="shape"/>
</filter>
<filter id="filter4_dd_41_1454" x="42.8864" y="220.269" width="99.737" height="90.4091" filterUnits="userSpaceOnUse" color-interpolation-filters="sRGB">
<feFlood flood-opacity="0" result="BackgroundImageFix"/>
<feColorMatrix in="SourceAlpha" type="matrix" values="0 0 0 0 0 0 0 0 0 0 0 0 0 0 0 0 0 0 127 0" result="hardAlpha"/>
<feOffset/>
<feGaussianBlur stdDeviation="17.9383"/>
<feColorMatrix type="matrix" values="0 0 0 0 0 0 0 0 0 0.835294 0 0 0 0 0.933333 0 0 0 0.5 0"/>
<feBlend mode="normal" in2="BackgroundImageFix" result="effect1_dropShadow_41_1454"/>
<feColorMatrix in="SourceAlpha" type="matrix" values="0 0 0 0 0 0 0 0 0 0 0 0 0 0 0 0 0 0 127 0" result="hardAlpha"/>
<feOffset/>
<feGaussianBlur stdDeviation="2.51136"/>
<feColorMatrix type="matrix" values="0 0 0 0 0 0 0 0 0 0.835294 0 0 0 0 0.933333 0 0 0 0.4 0"/>
<feBlend mode="normal" in2="effect1_dropShadow_41_1454" result="effect2_dropShadow_41_1454"/>
<feBlend mode="normal" in="SourceGraphic" in2="effect2_dropShadow_41_1454" result="shape"/>
</filter>
<linearGradient id="paint0_linear_41_1454" x1="100.806" y1="218.117" x2="100.806" y2="195.395" gradientUnits="userSpaceOnUse">
<stop stop-color="#9430D3"/>
<stop offset="0.614483" stop-color="#782DCC"/>
<stop offset="0.614583" stop-color="#2324B6"/>
<stop offset="1" stop-color="#0220AE"/>
</linearGradient>
<linearGradient id="paint1_linear_41_1454" x1="177.266" y1="218.117" x2="177.266" y2="195.395" gradientUnits="userSpaceOnUse">
<stop stop-color="#9430D3"/>
<stop offset="0.614483" stop-color="#782DCC"/>
<stop offset="0.614583" stop-color="#2324B6"/>
<stop offset="1" stop-color="#0220AE"/>
</linearGradient>
</defs>
</svg>
