<svg width="273" height="193" viewBox="0 0 273 193" fill="none" xmlns="http://www.w3.org/2000/svg">
<path d="M88.7674 157.352L30.9773 157.352C30.2817 157.352 29.8195 158.047 30.0506 158.674L30.1062 158.798L47.6199 191.885C47.7906 192.207 48.1252 192.409 48.49 192.409L71.2537 192.409C71.5729 192.409 71.8691 192.255 72.0525 192L72.1238 191.885L89.6375 158.798C89.9627 158.183 89.5653 157.451 88.9031 157.361L88.7674 157.352Z" fill="#278418" stroke="#44B731" stroke-width="1.18169"/>
<path d="M71.5985 157.352L48.5565 157.352C47.8553 157.353 47.3946 158.057 47.6356 158.685L47.6933 158.81L54.5985 171.415C54.7713 171.73 55.1022 171.927 55.4618 171.927L64.6933 171.927C65.0079 171.927 65.3003 171.776 65.4843 171.527L65.5565 171.415L72.4618 158.81C72.7988 158.195 72.4025 157.452 71.7352 157.361L71.5985 157.352Z" fill="#68F865" stroke="#44B731" stroke-width="1.18169"/>
<path d="M210.593 157.352L268.383 157.352C269.079 157.352 269.541 158.047 269.31 158.674L269.254 158.798L251.74 191.885C251.57 192.207 251.235 192.409 250.87 192.409L228.107 192.409C227.787 192.409 227.491 192.255 227.308 192L227.236 191.885L209.723 158.798C209.398 158.183 209.795 157.451 210.457 157.361L210.593 157.352Z" stroke="#44B731" stroke-width="1.18169"/>
<path d="M81.3953 192.409L139.185 192.409C139.881 192.409 140.343 191.715 140.112 191.088L140.056 190.964L122.543 157.877C122.372 157.555 122.037 157.353 121.673 157.353L98.909 157.353C98.5897 157.353 98.2935 157.507 98.1101 157.762L98.0388 157.877L80.5252 190.964C80.2 191.579 80.5974 192.311 81.2596 192.4L81.3953 192.409Z" fill="#ABFDAA" stroke="#44B731" stroke-width="1.18169"/>
<path d="M217.965 192.409L160.175 192.409C159.479 192.409 159.017 191.715 159.248 191.088L159.304 190.964L176.818 157.877C176.988 157.555 177.323 157.353 177.688 157.353L200.452 157.353C200.771 157.353 201.067 157.507 201.25 157.762L201.322 157.877L218.835 190.964C219.161 191.579 218.763 192.311 218.101 192.4L217.965 192.409Z" stroke="#44B731" stroke-width="1.18169"/>
<path d="M200.796 192.409L177.754 192.409C177.053 192.409 176.592 191.705 176.833 191.076L176.891 190.951L183.796 178.347C183.969 178.031 184.3 177.835 184.66 177.835L193.891 177.835C194.206 177.835 194.498 177.986 194.682 178.234L194.754 178.347L201.66 190.951C201.997 191.566 201.6 192.31 200.933 192.4L200.796 192.409Z" fill="#278418" stroke="#44B731" stroke-width="1.18169"/>
<path d="M2.62012 192.409H38.3457C39.0417 192.409 39.5033 191.714 39.2715 191.087L39.2148 190.963L29.1826 172.056C29.0118 171.734 28.6777 171.532 28.3135 171.532H12.6523C12.3333 171.532 12.037 171.687 11.8535 171.941L11.7822 172.056L1.75 190.963C1.40199 191.619 1.87764 192.409 2.62012 192.409Z" stroke="#68F865" stroke-width="1.18169"/>
<path d="M167.543 157.352L131.817 157.352C131.121 157.353 130.659 158.048 130.891 158.675L130.948 158.799L140.98 177.706C141.151 178.028 141.485 178.229 141.849 178.229L157.51 178.229C157.829 178.229 158.126 178.075 158.309 177.82L158.381 177.706L168.413 158.799C168.761 158.143 168.285 157.352 167.543 157.352Z" fill="#278418" stroke="#44B731" stroke-width="1.18169"/>
<path d="M6.32098 155.793C5.95342 155.268 5.20136 155.235 4.78583 155.694L4.7077 155.793L2.21942 159.348C1.76256 160 2.22939 160.898 3.02606 160.898L8.00263 160.898C8.74961 160.898 9.20694 160.109 8.88446 159.473L8.80927 159.348L6.32098 155.793Z" stroke="#68F865" stroke-width="1.18169"/>
<path d="M13.3924 154.792H10.904C9.62929 154.792 8.88222 156.227 9.61321 157.271L12.1016 160.826C12.7288 161.722 14.0559 161.722 14.6831 160.826L17.1715 157.271C17.9025 156.227 17.1554 154.792 15.8807 154.792H13.3924Z" fill="#68F865"/>
<g style="mix-blend-mode:screen">
<path d="M271.837 117.637C271.837 117.637 213.498 127.252 139.515 127.252C65.5315 127.252 1.65178 107.208 1.65178 107.208" stroke="#0DF457" stroke-width="1.30367" stroke-linecap="round"/>
</g>
<g style="mix-blend-mode:screen">
<path d="M245.764 57.6682C245.764 57.6682 222.298 74.7789 145.218 96.6153C68.1388 118.452 1.65173 117.637 1.65173 117.637M210.076 45.4464L1.65173 99.0597M193.291 42.5131C178.625 70.2704 119.764 119.332 1.65173 93.5191" stroke="#0DF457" stroke-width="1.30367" stroke-linecap="round"/>
</g>
<g style="mix-blend-mode:screen">
<path d="M1.97775 87.4896L72.7017 129.696" stroke="#206D33" stroke-width="1.30367" stroke-linecap="round"/>
</g>
<g style="mix-blend-mode:screen">
<path d="M258.475 59.9497C258.475 59.9497 206.002 75.7566 132.996 84.2305C59.9911 92.7043 1.81488 75.7566 1.81488 75.7566" stroke="#206D33" stroke-width="1.30367" stroke-linecap="round"/>
</g>
<g style="mix-blend-mode:screen">
<path d="M1.65191 72.8233L129.9 20.3507" stroke="#0DF457" stroke-width="1.30367" stroke-linecap="round"/>
</g>
<g style="mix-blend-mode:screen">
<path d="M2.30368 5.35857C63.0872 46.75 148.314 137.681 272 110.304" stroke="#0DF457" stroke-width="1.30367" stroke-linecap="round"/>
</g>
<g style="mix-blend-mode:screen">
<path d="M1.00008 3.07706C59.3392 41.6982 111.323 73.1492 188.728 39.7427" stroke="#206D33" stroke-width="1.30367" stroke-linecap="round"/>
</g>
<g style="mix-blend-mode:screen">
<path d="M14.5257 1.61052C41.7398 39.091 161.677 159.191 271.511 102.971" stroke="#206D33" stroke-width="1.30367" stroke-linecap="round"/>
</g>
<g style="mix-blend-mode:screen">
<path d="M1.81462 4.05486L167.38 33.5504" stroke="#206D33" stroke-width="1.30367" stroke-linecap="round"/>
</g>
<g style="mix-blend-mode:screen">
<path d="M84.7609 7.8029C82.6424 32.9528 93.7236 93.2909 154.996 133.444" stroke="#206D33" stroke-width="1.30367" stroke-linecap="round"/>
</g>
<g style="mix-blend-mode:screen">
<path d="M98.6121 11.0621C98.6121 11.0621 109.693 105.252 271.674 113.074" stroke="#0DF457" stroke-width="1.30367" stroke-linecap="round"/>
</g>
</svg>
